<?xml version="1.0" encoding="utf-8"?>
<!-- Generator: Adobe Illustrator 25.2.3, SVG Export Plug-In . SVG Version: 6.00 Build 0)  -->
<svg version="1.1" id="Ebene_1" xmlns="http://www.w3.org/2000/svg" xmlns:xlink="http://www.w3.org/1999/xlink" x="0px" y="0px"
	 viewBox="0 0 372.5 252.63" style="enable-background:new 0 0 372.5 252.63;" xml:space="preserve">
<style type="text/css">
	.st0{clip-path:url(#SVGID_2_);fill:#F0F0F0;}
	.st1{clip-path:url(#SVGID_2_);fill:none;stroke:#3C3C3B;stroke-width:0.523;stroke-miterlimit:10;}
	.st2{clip-path:url(#SVGID_2_);fill:#BCE4FA;}
</style>
<g>
	<defs>
		<rect id="SVGID_1_" width="372.5" height="252.63"/>
	</defs>
	<clipPath id="SVGID_2_">
		<use xlink:href="#SVGID_1_"  style="overflow:visible;"/>
	</clipPath>
	<path class="st0" d="M371.55,145.35l-1.71-1.45l-3.52-0.38l-1.48-1.73l-0.69-2.29l0.38-1.13l0.89-0.85l0.79-1.41
		c0.17-1.02,0.21-2.04,0.11-3.07l0.33-1.09l1.41-0.9l0.98-1.51c-0.07-1.18-0.33-2.31-0.8-3.39l-0.15-1.78
		c0.85-0.9,1.61-1.89,2.28-2.93c0.64-2.44,0.83-5,0.54-7.51l1.01-4.08l-0.44-2.03c-1.04-1.17-2.24-2.23-3.55-3.1
		c-0.68-1.34-1.55-2.59-2.57-3.67v-0.03l-0.44-0.28l-0.45-0.09l-0.45,0.09l-2.39,1.38l-2.08,2.38l-1.43,2.75l-0.05,2.26l-2.05,0.09
		l-1.6-0.42l-1.34,0.26l-1.26,2.1c-0.26,1.17-0.48,2.29-0.67,3.46l-0.85,1.23c-1.78,1.1-3.7,1.91-5.72,2.43l-1.7-0.06
		c-1.93-0.44-3.75-1.18-5.42-2.21l-3.17-3.02l-8.84-2.83l-2.03-1.56l-1.05-1.49l-0.15-1.13c0.2-1.77,0.47-3.53,0.81-5.27l0-0.71
		l-0.31-0.38l-0.51,0.05l-0.36-0.3l0.14-1.37c-5.63-1.77-11.26-3.65-16.96-5.11l-4.31,0.54l-1.56-0.4l-1.69,0.54
		c-2.33-0.27-4.65-0.73-6.9-1.38l-0.09-1.12c0.64-0.95,1.38-1.82,2.23-2.6l0.78-1.6l-0.04-2.58c-0.78-1.88-1.52-3.76-2.23-5.66
		l0.21-4.07c1.73-5.33,4.6-9.98,8.21-14.26c0.38-1.34,0.76-2.7,1.14-4.05l3.19-4.04l0.81-1.84l0.05-5.14l-2.36-2.07l-3.06-1.4
		l-2.45-3.66c-0.2-0.94-0.42-1.94-0.62-2.88L273.7,21.52l-3.21-0.74l-3.08,0l-1.12-1.74c-4.6,0.05-9.19-0.29-13.73-1.02l-1.58,0.62
		l-1.3,1.42c-2,0.79-4.08,1.21-6.23,1.27l-2.01-0.53c-1.32-0.87-2.53-1.87-3.62-3l0-0.85l1.5-0.35l-2.12-2.02l-2.7-1.57l-2.23-0.1
		l-0.72,2.39l0.67,0.75l-4.37,0.07c-0.09-0.58-0.21-1.15-0.36-1.72l-0.65-0.81l-0.34-1l0.27-0.8c0.48-0.67,0.92-1.38,1.32-2.11
		l-0.56-1.24l-0.8-0.15l-0.9,0.19l-0.87-0.19c-0.65-1.22-1.32-2.4-2.03-3.58l-1.09-0.37l-0.74,0.79l-0.41,2.66l-1.01,0.67
		l-0.84-0.61c-0.26-1.31-0.41-2.62-0.47-3.95l-1.54-0.69l-2.05-0.11l-1.3,0.75l0.76,1.93l-1.25,0.63c-1.73,0.47-3.56,0.76-5.34,0.86
		l-0.65,0.39c-1.16,1.45-1.88,3.13-2.13,4.97l-0.87,0.82l-2.08,1.15l-0.81,0.92l-0.09,0.91c0.29,0.61,0.48,1.25,0.56,1.92L201,19.71
		c0.54,0.29,1.11,0.46,1.7,0.53c1.18,1,2.46,1.86,3.83,2.58l1.47-0.07c1.2-0.7,2.38-1.38,3.59-2.06L215.6,20
		c0.87,0.06,1.7,0.3,2.46,0.73l0.74,0.07l-0.45,2.89l-0.54-0.27l-0.05-0.75l-0.09-0.19l-0.34,0.01l-0.44,0.17l-0.31,0.25l-0.18,0.67
		c0.07,0.36,0.18,0.7,0.33,1.03c0.01,1.01-0.03,2.02-0.11,3.02l-0.54,0.94l-1.1,0.38c-0.74-0.85-1.37-1.77-1.9-2.77L211.8,25
		l-2.46,0.26l-2.52,1.67l-0.96,2.08l-0.11,0.59c-2.57,0.47-5.19,0.6-7.81,0.4l-3.14-0.83l-0.8-0.52c-0.42-0.75-0.76-1.53-1.02-2.35
		l-0.45-0.53c-1.06-0.11-2.1-0.36-3.1-0.75c-1.99,0.04-3.99,0.3-5.94,0.76l-0.42,0.28c-0.27,0.44-0.59,0.83-0.96,1.19
		c-2.35,0.47-4.23,1.83-5.38,3.9l-0.8,0.55c-4.72,1.07-9.59,1.12-14.44,0.84L161.3,32c-0.08-0.77-0.22-1.53-0.44-2.28l-0.49-0.52
		l-5.31-0.31l-1.16-0.6c-0.82,1.4-1.76,2.7-2.82,3.92l-1.56,0.88l-6.85,1.44l-1.81-0.24l-4.28-2.25l2.16,0.01l0.89-0.84l1.08-3.05
		c-2.04,0.2-4.06,0.69-5.98,1.44l-0.13,0.11c-3.24,0.94-6.12,2.66-8.49,5.08l0.2,0.08l1.38,1.05l0.27,0l0.04,1.21l-0.36,0.7
		l-0.65,0.22l-0.87-0.18l-0.47,0.26l-0.11,0.39l0.18,0.49l0.58,0.82l0.09,0.3l-0.02,0.33l-0.11,0.34c-0.42,0.47-0.9,0.93-1.39,1.34
		l-1.07-0.15c-0.7-0.55-1.49-0.93-2.36-1.13l-0.96,0.28l0.02,0.75l0.4,0.74c0.27,0.25,0.5,0.54,0.69,0.87l0.15,0.68l-0.27,1.14
		l-1.63,2.13l-2.3,0.93l-5.73-0.24c-2.02,0.43-3.97,1.07-5.83,1.94l-0.65-0.28c-0.23-0.26-0.42-0.55-0.56-0.87l-0.34-0.28
		l-2.41-0.76l-1.79-1.07l-0.48-1.97l1.48-3.45L99,41.59l-1.1-0.18l-1.07-0.62l-1.94-0.4l-4.11,0.72l-2.12-0.31l-0.76-0.58
		l-0.76-0.19l-0.73,0.19l-0.74,0.58l-1.54,0.46l0.22,1.36c0.58,0.98,0.99,2.02,1.25,3.12l-0.63,1.02c-0.73,0.77-1.59,1.38-2.55,1.82
		l-2.16,0.48l-0.14,2.29l-2.1,1.25c-0.91,1.06-1.66,2.22-2.24,3.48l-0.41,1.56l9.8-0.98l1.52-0.73c1.32,0.9,2.45,2.04,3.34,3.36
		l-0.65,1.33l-0.76,0.49l-0.85,0.24l-0.85,0.5l-1.21,1.63l-0.43,0.17l-0.74,0.1l-1.56,1.6l-0.54,2.48l0.35,3.01
		c-2.93,1.85-5.61,4.05-7.98,6.57L73.22,80l-5.4,5l-2.48,0.86l0.09,2.07c-0.53,0.22-1.02,0.49-1.48,0.82l-0.31,0.77l-2.06,0.74
		l-0.78,0.76l-1.1,1.92l1,2.23l-1.88,2.72l-5.5,4.19c-4.56,0.99-8.89,2.71-12.86,5.11l-1.23,4.22c0.34,1.12,0.83,2.19,1.45,3.18
		l0.25,1.32l-0.13,1.66c-1.05,2.13-1.86,4.37-2.44,6.67l0.22,0.68c0.31,0.46,0.66,0.88,1.05,1.26l0.04,2.02l-0.31,1.01l-0.92,1.16
		c-1.13,0.82-2.35,1.52-3.62,2.1c-2.34,2.88-5.36,5.04-8.87,6.38c-4.14,3.79-8.4,7.48-12.18,11.6l0.26,1.57l1.99,2.22
		c-2.26,2.64-4.19,5.51-5.77,8.6l-0.94,1l-0.33,0.73l0,0.61c0.1,0.36,0.23,0.71,0.38,1.05c0,0.71,0.07,1.4,0.24,2.09l-0.16,0.78
		l-0.94,0.91l4.44,2.73l1.21,1.3l1,1.8l0.13,1.31c-2.33,3.9-3.58,8.15-3.48,12.64l-0.36,0.79c-0.74,0.28-1.51,0.49-2.28,0.62
		c-0.48-0.11-0.98-0.2-1.45-0.27c-2.45,1.05-4.82,2.3-7.06,3.74l-0.33,1.43c0.6,1.26,1.38,2.41,2.32,3.44l-0.25,1.02
		c-0.64,1.23-1.21,2.48-1.72,3.77l1.97-1.18c2.44-0.76,4.94-1.11,7.5-1.05l2.81,1.25l2.66-1.38l4.22-4.92l5.27-3.49l2.14-2.26
		l-0.44-2.74l-0.58-0.24l-1.38,0.63l-0.87-0.45c-0.48-0.76-0.86-1.6-1.13-2.46l-0.05-0.48c-0.43-1.05-0.8-2.11-1.11-3.2l0.45-1.63
		c1.84-2.95,4.11-5.56,6.75-7.78l2.54-0.83c1.84,0.03,3.64-0.24,5.4-0.81l7.02-4.82l5.27-1.05c6.57,0.07,12.86,1.74,19.02,3.94
		l0.76,1.19l0.18,2.26l-0.6,1.99l-2.17,2.54l-0.43,1.37l1.58,2.72l2.92,3.09l1.89,3.22c-2.66,4.27-4.38,9.02-5.1,13.99l0.73,1.99
		l6.56,1.44l1.25,1.22l-0.09,0.89c-0.53,0.79-1.07,1.56-1.61,2.34l0.24-0.13c0.14,0.8,0.2,1.6,0.16,2.41l-0.13,0.11l0.04,0.92
		l-0.16,0.49l0.05,0.37l0.72,0.55l0.78,0.11c0.46-0.3,0.86-0.66,1.21-1.08l0.69-0.29l1.89,0.82l5.59,6.3l0.4,0.26
		c0.84,4.71,3.01,8.9,6.53,12.15l1.92,1.14c5.36,1.21,10.63-0.36,15.11-3.53l1.09-0.37l6.2,0.65l2.64-0.93
		c2.19-1.93,4.65-3.49,7.31-4.63l1.74-0.22c0.67-0.77,1.24-1.62,1.7-2.53l1.38-0.71l8.41,2.09c0.97,0.47,1.81,1.09,2.54,1.89
		c0.6,0.81,1.17,1.68,1.67,2.55l1.02,0.35c0.47-0.06,0.9-0.21,1.3-0.46l0.8-0.09l3.99,1.45l2.25-0.05l1.49,0.45l0.47,0.02l1.03-0.56
		l0.2-0.39l-0.07-0.62l0.25-1.21l1.92-3.66l2.19-1.53c2.22-0.47,4.44-0.99,6.63-1.56l0.6-0.49l1.01-1.34
		c0.27-0.77,0.61-1.54,1.01-2.25c0.27-2.02,0.48-4.03,0.61-6.05l0.6-1.22l0.81-0.63c0.9-0.01,1.77-0.18,2.61-0.48l3.6-3.13
		l1.79-3.84l-0.22-4.35l-2.47-4.7l-1.92-1.67l-0.29-0.46l0.36-1c0.68-1.04,1.49-1.97,2.43-2.8c1.69-0.82,3.49-1.37,5.36-1.62
		l1.7-1.19l4.05-5.34c1.17-0.5,2.27-1.14,3.28-1.91l0.81-0.98l0.51-1.09l-0.04-1.2l-0.54-0.42l-0.33-0.51l0.69-1.51l1.76-1.86
		l2.23-1.22l4.6-0.99l2.37,0.42l1.14,1.64c1.16,7.5-2.05,14.44-1.17,21.82l0.9,1.91l1.5,1.25c1.53,0.56,3.01,1.23,4.44,2
		c2.9,3.03,5.44,6.43,7.54,10.08c2.18,0.85,4.26,1.91,6.23,3.19l1.45,0.08c0.69-0.39,1.33-0.89,1.88-1.47l0.51-0.24l0.67,0.24
		l0.62,1.11l0.63,0.42c1.27,0.21,2.56,0.25,3.84,0.13l1.23,0.43l2.1,2.76l-1.21,2.78l-2.35,2.87c-0.59,1.42-1.22,2.83-1.9,4.21
		l1.41,0.08c2.29,0.88,4.53,2.05,6.56,3.42c2.14,3.08,3.55,6.64,4.07,10.3c-0.48,1.54-0.85,3.09-1.14,4.68l3.26-1l2.7,1.2l2.48,0.46
		c1.97-2.14,3.53-4.55,4.69-7.23l0.3-2.01l-0.93-1.96l-0.8-0.49l-1.78-0.36l-0.81-0.46l-0.74-1.1l-0.69-2.14l-0.89-0.9l-0.18-0.3
		l-0.05-0.3l0.05-0.31l0.18-0.28l2.71-2.51l-1.47-4.11l0.36-1.35l2.1-1.63l1.81-0.57l0.78-0.46l0.65-1.1l0.27-1.46l-0.18-2.66
		l0.33-1.53l1.52-2.29l5.97-4.05c0.62-1.21,1.12-2.46,1.5-3.76c0.55-0.5,1.18-0.88,1.88-1.13l0.96-0.89l0.74-1.2
		c0.79-3.25,2.01-6.35,3.63-9.28l0.51-2.63c-0.17-1.95-0.59-3.88-1.22-5.75c-0.08-1.08-0.01-2.14,0.2-3.21l-0.16-1.18l-1.11-0.77
		l-0.8-1.6l0.65-2.92l1.45-2.87l1.56-1.46l4.02-0.5l1.63,0.43l0.08,1.47l2.11,2.01l0.61,0.26l0.91-0.35c0.32-0.48,0.55-1,0.69-1.57
		l0.54-0.76l1.34-0.98l0.65-0.15l0.25,0.74c0.27,4.42,0.47,8.84,0.39,13.25l0.16,0.66l0.6,0.59c0.92,0.43,1.77,0.97,2.55,1.61
		l1.63,4.29l1.05,1.45l1.76,1.18l1.9,0.69l9.46,0.1l1.56-0.63l1.25-1.75c-0.08-1.22-0.06-2.42,0.07-3.64l0.89-1.02l0.91,0.03
		l1.99,1.2l1.05,0.24c2.5-0.88,4.92-2.03,7.21-3.39l3.59-0.63c1.13,0.02,2.23,0.21,3.3,0.57l2.07,1.35l0.55,1.94
		c-0.07,1.68,0.13,3.33,0.58,4.95c1.23,1.73,2.74,3.25,4.46,4.51l0.84,2.03l0.08,2.68l2.71,0.05c2.08-0.62,4.02-1.54,5.8-2.77
		l1.07-2.26l-1.05-2.12l-3.41-3.45c-0.51-0.71-0.87-1.49-1.07-2.33l0.04-1.09l0.43-1.61l0.62-1.15c0.88-0.68,1.66-1.47,2.32-2.35
		l0.61-2.6l-0.6-1.32c-2.54-0.63-5.05-1.37-7.54-2.22l-1.29-1.62l1.45-2.46l-0.72-0.49l-0.4-0.67c-0.17-0.64-0.27-1.3-0.29-1.96
		l0.36-1.27c-0.07-1.16-0.03-2.33,0.12-3.48c1-1.29,2.06-2.54,3.17-3.75c0.35-1.62,0.81-3.23,1.37-4.78
		c2.77-1.08,5.67-1.99,8.58-2.69l2.12-0.02l1.32,1.07l0.15,1.35l-0.43,2.46l0.36,1.29l3.41,1.16c0.57,0.55,1.09,1.11,1.6,1.72
		l0.92,0.43l1.07,0.17l2.86-0.28l5.91,1.54l1.49-0.28l1.16-1.91c0.57-1.98,0.8-3.99,0.7-6.05L371.55,145.35z"/>
	<path class="st1" d="M371.55,145.35l-1.71-1.45l-3.52-0.38l-1.48-1.73l-0.69-2.29l0.38-1.13l0.89-0.85l0.79-1.41
		c0.17-1.02,0.21-2.04,0.11-3.07l0.33-1.09l1.41-0.9l0.98-1.51c-0.07-1.18-0.33-2.31-0.8-3.39l-0.15-1.78
		c0.85-0.9,1.61-1.89,2.28-2.93c0.64-2.44,0.83-5,0.54-7.51l1.01-4.08l-0.44-2.03c-1.04-1.17-2.24-2.23-3.55-3.1
		c-0.68-1.34-1.55-2.59-2.57-3.67v-0.03l-0.44-0.28l-0.45-0.09l-0.45,0.09l-2.39,1.38l-2.08,2.38l-1.43,2.75l-0.05,2.26l-2.05,0.09
		l-1.6-0.42l-1.34,0.26l-1.26,2.1c-0.26,1.17-0.48,2.29-0.67,3.46l-0.85,1.23c-1.78,1.1-3.7,1.91-5.72,2.43l-1.7-0.06
		c-1.93-0.44-3.75-1.18-5.42-2.21l-3.17-3.02l-8.84-2.83l-2.03-1.56l-1.05-1.49l-0.15-1.13c0.2-1.77,0.47-3.53,0.81-5.27l0-0.71
		l-0.31-0.38l-0.51,0.05l-0.36-0.3l0.14-1.37c-5.63-1.77-11.26-3.65-16.96-5.11l-4.31,0.54l-1.56-0.4l-1.69,0.54
		c-2.33-0.27-4.65-0.73-6.9-1.38l-0.09-1.12c0.64-0.95,1.38-1.82,2.23-2.6l0.78-1.6l-0.04-2.58c-0.78-1.88-1.52-3.76-2.23-5.66
		l0.21-4.07c1.73-5.33,4.6-9.98,8.21-14.26c0.38-1.34,0.76-2.7,1.14-4.05l3.19-4.04l0.81-1.84l0.05-5.14l-2.36-2.07l-3.06-1.4
		l-2.45-3.66c-0.2-0.94-0.42-1.94-0.62-2.88L273.7,21.52l-3.21-0.74l-3.08,0l-1.12-1.74c-4.6,0.05-9.19-0.29-13.73-1.02l-1.58,0.62
		l-1.3,1.42c-2,0.79-4.08,1.21-6.23,1.27l-2.01-0.53c-1.32-0.87-2.53-1.87-3.62-3l0-0.85l1.5-0.35l-2.12-2.02l-2.7-1.57l-2.23-0.1
		l-0.72,2.39l0.67,0.75l-4.37,0.07c-0.09-0.58-0.21-1.15-0.36-1.72l-0.65-0.81l-0.34-1l0.27-0.8c0.48-0.67,0.92-1.38,1.32-2.11
		l-0.56-1.24l-0.8-0.15l-0.9,0.19l-0.87-0.19c-0.65-1.22-1.32-2.4-2.03-3.58l-1.09-0.37l-0.74,0.79l-0.41,2.66l-1.01,0.67
		l-0.84-0.61c-0.26-1.31-0.41-2.62-0.47-3.95l-1.54-0.69l-2.05-0.11l-1.3,0.75l0.76,1.93l-1.25,0.63c-1.73,0.47-3.56,0.76-5.34,0.86
		l-0.65,0.39c-1.16,1.45-1.88,3.13-2.13,4.97l-0.87,0.82l-2.08,1.15l-0.81,0.92l-0.09,0.91c0.29,0.61,0.48,1.25,0.56,1.92L201,19.71
		c0.54,0.29,1.11,0.46,1.7,0.53c1.18,1,2.46,1.86,3.83,2.58l1.47-0.07c1.2-0.7,2.38-1.38,3.59-2.06L215.6,20
		c0.87,0.06,1.7,0.3,2.46,0.73l0.74,0.07l-0.45,2.89l-0.54-0.27l-0.05-0.75l-0.09-0.19l-0.34,0.01l-0.44,0.17l-0.31,0.25l-0.18,0.67
		c0.07,0.36,0.18,0.7,0.33,1.03c0.01,1.01-0.03,2.02-0.11,3.02l-0.54,0.94l-1.1,0.38c-0.74-0.85-1.37-1.77-1.9-2.77L211.8,25
		l-2.46,0.26l-2.52,1.67l-0.96,2.08l-0.11,0.59c-2.57,0.47-5.19,0.6-7.81,0.4l-3.14-0.83l-0.8-0.52c-0.42-0.75-0.76-1.53-1.02-2.35
		l-0.45-0.53c-1.06-0.11-2.1-0.36-3.1-0.75c-1.99,0.04-3.99,0.3-5.94,0.76l-0.42,0.28c-0.27,0.44-0.59,0.83-0.96,1.19
		c-2.35,0.47-4.23,1.83-5.38,3.9l-0.8,0.55c-4.72,1.07-9.59,1.12-14.44,0.84L161.3,32c-0.08-0.77-0.22-1.53-0.44-2.28l-0.49-0.52
		l-5.31-0.31l-1.16-0.6c-0.82,1.4-1.76,2.7-2.82,3.92l-1.56,0.88l-6.85,1.44l-1.81-0.24l-4.28-2.25l2.16,0.01l0.89-0.84l1.08-3.05
		c-2.04,0.2-4.06,0.69-5.98,1.44l-0.13,0.11c-3.24,0.94-6.12,2.66-8.49,5.08l0.2,0.08l1.38,1.05l0.27,0l0.04,1.21l-0.36,0.7
		l-0.65,0.22l-0.87-0.18l-0.47,0.26l-0.11,0.39l0.18,0.49l0.58,0.82l0.09,0.3l-0.02,0.33l-0.11,0.34c-0.42,0.47-0.9,0.93-1.39,1.34
		l-1.07-0.15c-0.7-0.55-1.49-0.93-2.36-1.13l-0.96,0.28l0.02,0.75l0.4,0.74c0.27,0.25,0.5,0.54,0.69,0.87l0.15,0.68l-0.27,1.14
		l-1.63,2.13l-2.3,0.93l-5.73-0.24c-2.02,0.43-3.97,1.07-5.83,1.94l-0.65-0.28c-0.23-0.26-0.42-0.55-0.56-0.87l-0.34-0.28
		l-2.41-0.76l-1.79-1.07l-0.48-1.97l1.48-3.45L99,41.59l-1.1-0.18l-1.07-0.62l-1.94-0.4l-4.11,0.72l-2.12-0.31l-0.76-0.58
		l-0.76-0.19l-0.73,0.19l-0.74,0.58l-1.54,0.46l0.22,1.36c0.58,0.98,0.99,2.02,1.25,3.12l-0.63,1.02c-0.73,0.77-1.59,1.38-2.55,1.82
		l-2.16,0.48l-0.14,2.29l-2.1,1.25c-0.91,1.06-1.66,2.22-2.24,3.48l-0.41,1.56l9.8-0.98l1.52-0.73c1.32,0.9,2.45,2.04,3.34,3.36
		l-0.65,1.33l-0.76,0.49l-0.85,0.24l-0.85,0.5l-1.21,1.63l-0.43,0.17l-0.74,0.1l-1.56,1.6l-0.54,2.48l0.35,3.01
		c-2.93,1.85-5.61,4.05-7.98,6.57L73.22,80l-5.4,5l-2.48,0.86l0.09,2.07c-0.53,0.22-1.02,0.49-1.48,0.82l-0.31,0.77l-2.06,0.74
		l-0.78,0.76l-1.1,1.92l1,2.23l-1.88,2.72l-5.5,4.19c-4.56,0.99-8.89,2.71-12.86,5.11l-1.23,4.22c0.34,1.12,0.83,2.19,1.45,3.18
		l0.25,1.32l-0.13,1.66c-1.05,2.13-1.86,4.37-2.44,6.67l0.22,0.68c0.31,0.46,0.66,0.88,1.05,1.26l0.04,2.02l-0.31,1.01l-0.92,1.16
		c-1.13,0.82-2.35,1.52-3.62,2.1c-2.34,2.88-5.36,5.04-8.87,6.38c-4.14,3.79-8.4,7.48-12.18,11.6l0.26,1.57l1.99,2.22
		c-2.26,2.64-4.19,5.51-5.77,8.6l-0.94,1l-0.33,0.73l0,0.61c0.1,0.36,0.23,0.71,0.38,1.05c0,0.71,0.07,1.4,0.24,2.09l-0.16,0.78
		l-0.94,0.91l4.44,2.73l1.21,1.3l1,1.8l0.13,1.31c-2.33,3.9-3.58,8.15-3.48,12.64l-0.36,0.79c-0.74,0.28-1.51,0.49-2.28,0.62
		c-0.48-0.11-0.98-0.2-1.45-0.27c-2.45,1.05-4.82,2.3-7.06,3.74l-0.33,1.43c0.6,1.26,1.38,2.41,2.32,3.44l-0.25,1.02
		c-0.64,1.23-1.21,2.48-1.72,3.77l1.97-1.18c2.44-0.76,4.94-1.11,7.5-1.05l2.81,1.25l2.66-1.38l4.22-4.92l5.27-3.49l2.14-2.26
		l-0.44-2.74l-0.58-0.24l-1.38,0.63l-0.87-0.45c-0.48-0.76-0.86-1.6-1.13-2.46l-0.05-0.48c-0.43-1.05-0.8-2.11-1.11-3.2l0.45-1.63
		c1.84-2.95,4.11-5.56,6.75-7.78l2.54-0.83c1.84,0.03,3.64-0.24,5.4-0.81l7.02-4.82l5.27-1.05c6.57,0.07,12.86,1.74,19.02,3.94
		l0.76,1.19l0.18,2.26l-0.6,1.99l-2.17,2.54l-0.43,1.37l1.58,2.72l2.92,3.09l1.89,3.22c-2.66,4.27-4.38,9.02-5.1,13.99l0.73,1.99
		l6.56,1.44l1.25,1.22l-0.09,0.89c-0.53,0.79-1.07,1.56-1.61,2.34l0.24-0.13c0.14,0.8,0.2,1.6,0.16,2.41l-0.13,0.11l0.04,0.92
		l-0.16,0.49l0.05,0.37l0.72,0.55l0.78,0.11c0.46-0.3,0.86-0.66,1.21-1.08l0.69-0.29l1.89,0.82l5.59,6.3l0.4,0.26
		c0.84,4.71,3.01,8.9,6.53,12.15l1.92,1.14c5.36,1.21,10.63-0.36,15.11-3.53l1.09-0.37l6.2,0.65l2.64-0.93
		c2.19-1.93,4.65-3.49,7.31-4.63l1.74-0.22c0.67-0.77,1.24-1.62,1.7-2.53l1.38-0.71l8.41,2.09c0.97,0.47,1.81,1.09,2.54,1.89
		c0.6,0.81,1.17,1.68,1.67,2.55l1.02,0.35c0.47-0.06,0.9-0.21,1.3-0.46l0.8-0.09l3.99,1.45l2.25-0.05l1.49,0.45l0.47,0.02l1.03-0.56
		l0.2-0.39l-0.07-0.62l0.25-1.21l1.92-3.66l2.19-1.53c2.22-0.47,4.44-0.99,6.63-1.56l0.6-0.49l1.01-1.34
		c0.27-0.77,0.61-1.54,1.01-2.25c0.27-2.02,0.48-4.03,0.61-6.05l0.6-1.22l0.81-0.63c0.9-0.01,1.77-0.18,2.61-0.48l3.6-3.13
		l1.79-3.84l-0.22-4.35l-2.47-4.7l-1.92-1.67l-0.29-0.46l0.36-1c0.68-1.04,1.49-1.97,2.43-2.8c1.69-0.82,3.49-1.37,5.36-1.62
		l1.7-1.19l4.05-5.34c1.17-0.5,2.27-1.14,3.28-1.91l0.81-0.98l0.51-1.09l-0.04-1.2l-0.54-0.42l-0.33-0.51l0.69-1.51l1.76-1.86
		l2.23-1.22l4.6-0.99l2.37,0.42l1.14,1.64c1.16,7.5-2.05,14.44-1.17,21.82l0.9,1.91l1.5,1.25c1.53,0.56,3.01,1.23,4.44,2
		c2.9,3.03,5.44,6.43,7.54,10.08c2.18,0.85,4.26,1.91,6.23,3.19l1.45,0.08c0.69-0.39,1.33-0.89,1.88-1.47l0.51-0.24l0.67,0.24
		l0.62,1.11l0.63,0.42c1.27,0.21,2.56,0.25,3.84,0.13l1.23,0.43l2.1,2.76l-1.21,2.78l-2.35,2.87c-0.59,1.42-1.22,2.83-1.9,4.21
		l1.41,0.08c2.29,0.88,4.53,2.05,6.56,3.42c2.14,3.08,3.55,6.64,4.07,10.3c-0.48,1.54-0.85,3.09-1.14,4.68l3.26-1l2.7,1.2l2.48,0.46
		c1.97-2.14,3.53-4.55,4.69-7.23l0.3-2.01l-0.93-1.96l-0.8-0.49l-1.78-0.36l-0.81-0.46l-0.74-1.1l-0.69-2.14l-0.89-0.9l-0.18-0.3
		l-0.05-0.3l0.05-0.31l0.18-0.28l2.71-2.51l-1.47-4.11l0.36-1.35l2.1-1.63l1.81-0.57l0.78-0.46l0.65-1.1l0.27-1.46l-0.18-2.66
		l0.33-1.53l1.52-2.29l5.97-4.05c0.62-1.21,1.12-2.46,1.5-3.76c0.55-0.5,1.18-0.88,1.88-1.13l0.96-0.89l0.74-1.2
		c0.79-3.25,2.01-6.35,3.63-9.28l0.51-2.63c-0.17-1.95-0.59-3.88-1.22-5.75c-0.08-1.08-0.01-2.14,0.2-3.21l-0.16-1.18l-1.11-0.77
		l-0.8-1.6l0.65-2.92l1.45-2.87l1.56-1.46l4.02-0.5l1.63,0.43l0.08,1.47l2.11,2.01l0.61,0.26l0.91-0.35c0.32-0.48,0.55-1,0.69-1.57
		l0.54-0.76l1.34-0.98l0.65-0.15l0.25,0.74c0.27,4.42,0.47,8.84,0.39,13.25l0.16,0.66l0.6,0.59c0.92,0.43,1.77,0.97,2.55,1.61
		l1.63,4.29l1.05,1.45l1.76,1.18l1.9,0.69l9.46,0.1l1.56-0.63l1.25-1.75c-0.08-1.22-0.06-2.42,0.07-3.64l0.89-1.02l0.91,0.03
		l1.99,1.2l1.05,0.24c2.5-0.88,4.92-2.03,7.21-3.39l3.59-0.63c1.13,0.02,2.23,0.21,3.3,0.57l2.07,1.35l0.55,1.94
		c-0.07,1.68,0.13,3.33,0.58,4.95c1.23,1.73,2.74,3.25,4.46,4.51l0.84,2.03l0.08,2.68l2.71,0.05c2.08-0.62,4.02-1.54,5.8-2.77
		l1.07-2.26l-1.05-2.12l-3.41-3.45c-0.51-0.71-0.87-1.49-1.07-2.33l0.04-1.09l0.43-1.61l0.62-1.15c0.88-0.68,1.66-1.47,2.32-2.35
		l0.61-2.6l-0.6-1.32c-2.54-0.63-5.05-1.37-7.54-2.22l-1.29-1.62l1.45-2.46l-0.72-0.49l-0.4-0.67c-0.17-0.64-0.27-1.3-0.29-1.96
		l0.36-1.27c-0.07-1.16-0.03-2.33,0.12-3.48c1-1.29,2.06-2.54,3.17-3.75c0.35-1.62,0.81-3.23,1.37-4.78
		c2.77-1.08,5.67-1.99,8.58-2.69l2.12-0.02l1.32,1.07l0.15,1.35l-0.43,2.46l0.36,1.29l3.41,1.16c0.57,0.55,1.09,1.11,1.6,1.72
		l0.92,0.43l1.07,0.17l2.86-0.28l5.91,1.54l1.49-0.28l1.16-1.91c0.57-1.98,0.8-3.99,0.7-6.05L371.55,145.35z"/>
	<path class="st2" d="M55.1,123.22l10.41-8.46c0,0,3.82-6.61,7.04-8.23c3.22-1.62,5.03-6.16,10.67-7.45
		c5.64-1.3,5.84,1.16,5.84,1.16s-1.38,3.89-9.18,10.72c-7.8,6.82-13.76,12.26-14.37,12.26h-4.43c0,0-1.52,2.2-3.48,2.01
		C55.64,125.05,55.1,123.22,55.1,123.22"/>
	<path class="st2" d="M240.86,198.98c0,0-1.17,3.32-5.3,3.94c-4.13,0.62-7.42,5.72-6.63,7.29c0.79,1.57,5,6.8,2.5,8.41
		c-2.5,1.61-8.75,7.14-10.16,11.32c-1.41,4.18,0,5.85,0,7.97s0.56,5.47-0.63,5.47c-1.19,0-3.6-0.6-3.4,1.61
		c0.2,2.21,5.84,7.03,4.83,7.45c-1.01,0.42-3.82,0.2-3.82-0.81c0-1.01-5.64-8.1-2.82-9.84c2.82-1.75,2-4.75,0.6-7.04
		s-7.87-5.57-4.63-8.93c3.62,0,2.82,1.63,4.23,1.63c1.41,0,9.46-10.51,11.87-11.48c2.42-0.96-3.58-11.43,1.42-13.44
		c5-2.01,5.17-0.45,6.63-2c1.46-1.54,0.64-4.65,3.96-2.43C242.86,200.3,240.86,198.98,240.86,198.98"/>
	<path class="st2" d="M262.25,213.46l-2.1,2.5c0,0-3.13-1.25-5,0c-1.88,1.25-4.56,1.45-5.91,2.26c-1.35,0.8-0.27,6.08-1.39,7.65
		c-1.11,1.57-1.57,3.14-2.5,1.57c-0.93-1.57,1.14-8.23,0-8.01c-1.14,0.22-1.99,3.82-1.99,3.82s-1.91-1.61-1.91-0.8
		c0,0.8,0.89,1.09,1.4,1.81c0.51,0.72,0.63,5.68,1.57,5.68c0.93,0,4.82-1.74,4.82-2.5c0-0.77,2.5,2.5,2.5,2.5l-1.35-8.24h0.35
		c0,0-0.72-1.87,1.11-2.27c1.83-0.4,7.9-2.62,7.9-2.62l3.19-0.85l1.01-2.5H262.25z"/>
	<path class="st2" d="M14.18,193.48l0.2-5.65c0,0,1.79-0.8,1.79,0c0,0.81-0.83-3.62,0-4.23c0.83-0.6,3.04-10.87,9.28-11.47
		c0.4-3.05,2.21-4.81,5.84-8.65c4.83,0,4.23,0.6,4.23,0.6s2.82-1.81,4.03-1.6c1.21,0.2,3.22-5.89,6.84-4.43
		c3.62,1.47,3.11-2.42,11.21,0.81c3.28,0.96,3.88,2.82,3.88,2.82s1.81-1.01,3.02-0.2c1.21,0.8,3.62,2.2,7.25,2.01
		c-0.8,1.41,0.6,1.41,0.6,1.41s3.2,2,5.02,2.21c1.82,0.22,4.03,4.66,1.22,5.25c-2.82,0.59-8.25,1.59-10.26,0.18
		c-2.01-1.41-2.42-1.41-3.82-1.41s-14.76-0.22-16.1,1.01c-1.34,1.22-2.62-1.41-3.62-1.41c-1.01,0-2.21,1.41-3.42,3.42
		c-1.21,2.01-5.03,1.59-5.84,3.42c-0.8,1.83-4.63-3.52-6.64-2.06c-2.01,1.46-6.24,4.88-7.04,7.7c-0.8,2.82-3.55,3.32-4.09,8.61
		C17.2,197.09,10.16,191.8,14.18,193.48"/>
	<path class="st2" d="M91.67,93.42c0,0,5.43-4.38,6.64-5c1.21-0.62,5.84-4.25,6.84-4.65c1-0.4-1.41,1.8-1.81,3.22
		c-0.4,1.43-1.21,4.8-2.62,5.4c-1.41,0.6-4.02,2.52-5.23,2.51c-1.21-0.01-1.81-0.44-0.4-1.48c1.41-1.04,3.02-2.04,2.21-2.04
		c-0.81,0-2.82,2.04-3.82,2.04H91.67z"/>
	<path class="st2" d="M90.66,107.32c0,0,2.42-2.01,2.82-2.01s2.01-0.65,2.21,0c0.2,0.65,1.41,1.76,0,2.62
		c-1.41,0.86-3.42,3.42-5.03,3.42c-1.61,0-3.22-2.05-2.42-2.31C89.05,108.78,90.66,107.32,90.66,107.32"/>
	<path class="st2" d="M138.37,129.18l-0.73,3.88c0,0,1.07,2.84,1.78,2.84c0.72,0,5.13,3.74,5.8,3.74c0.68,0,2.87,1.41,6.66,0.49
		c3.78-0.92,2.04-1.44,1.28-2.21c-0.76-0.78-4.72-0.78-5.43-0.78c-0.72,0-2.33-2.94-4.14-2.94
		C141.78,134.2,138.37,129.18,138.37,129.18"/>
	<path class="st2" d="M157.4,136.7c0,0,8.53-7.27,10.54-7.91c2.01-0.64,4.02-0.39,4.02,0c0,0.39,0.81,1.76,0,1.76
		c-0.8,0-3.42,1.49-3.82,2c-0.4,0.51-5.1,4.59-6.24,4.59C160.76,137.13,157.4,136.7,157.4,136.7"/>
	<path class="st2" d="M193.9,93.78c0,0,2.06,1.91,2.06,2.5c0,0.59-0.27,2.5-0.65,2.5c-0.38,0-0.97-0.72-1.41-0.72
		c-0.44,0,0,2.16,0,2.89c0,0.73,0.65,1.12,0,1.54c-0.65,0.42-3.48,1.61-2.94,2.01c0.54,0.4,2.73,0.23,4.79-2.01
		c2.07-2.24,3.83-3.27,4.2-3.27c0.37,0,4.63-1.02,4.83,0c0.2,1.02-3.22,1.66-2.62,2.46c0.6,0.81,6.64,1.77,8.05,1.77
		c1.41,0,5.43-3.21,6.24-3.21c0.81,0,0,4.05,0,6.29c0,2.24,0.57,5.41,1.76,5.41c1.19,0,2.53-1.79,1.86-2.91
		c-0.67-1.12-1.53-0.99-0.67-2.76c0.85-1.78-1.19-4.91-1.19-6.03c0-1.12-1.23-1.81-2.5-1.47c-1.27,0.34-1.47,1.47-3.08,1.47
		c-1.61,0-6.84-0.26-5.64-1.12c1.21-0.86,0-3.64-2.82-3.64s-3.62-0.32-1.81-1.71c1.81-1.39,3.02-6.05,1.21-4.47
		c-1.81,1.59-3.58,4.2-4.67,4.89c-1.09,0.69-2.94-1.21-2.94-1.21l-2.06-0.6c0,0-1.31,0.3-0.65,1.01
		C193.9,94.12,193.9,93.78,193.9,93.78"/>
	<path class="st2" d="M187.59,112.91c0,0-0.93,1.22-1.83,1.54c-0.9,0.32-1.91,2.5-1.91,2.5s0.46,0.57,1.87,0.29
		c1.41-0.29,1.39-2.79,1.87-2.79C188.07,114.45,187.59,112.91,187.59,112.91"/>
	<path class="st2" d="M178.48,79.43c0,0-1.54,1.53,0,2.91c1.54,1.38,3.75,2.5,4.56,2.5c0.81,0,1.61-0.85,0.81-1.68
		c-0.81-0.82-4.83-3.73-4.83-3.73H178.48z"/>
	<path class="st2" d="M187.13,66.26c0,0-2.95-6.45-2.95-5.43c0,1.02-0.53,6.35,0.47,7.2c1,0.85,1.65,1.49,2.06,1.49
		C187.13,69.52,187.13,66.26,187.13,66.26"/>
	<path class="st2" d="M187.8,73.12c0,0-0.87,2.11,0,2.96c0.87,0.85,3.08,1.35,3.08,1.35s-0.8-2.93-0.8-3.39
		C190.09,73.58,187.8,73.12,187.8,73.12"/>
	<path class="st2" d="M216.63,82.14c0,0,0.39,2.26,1.58,2.26c1.19,0,0.56,3.5,2.04,1.97c1.48-1.53,0.18-2,0-2.61
		C220.07,83.17,216.63,82.14,216.63,82.14"/>
	<path class="st2" d="M211.22,54.35c0,0,2.16,11.65,5.51,12.66s2.56,2.5,5,2.5c2.44,0,1.67,4.52,5.39,4.52h6.84
		c0,0,0.82,1.93,2.62,1.59c1.8-0.35,2.52-1.59,3.27-1.59c0.75,0,3.27,0.46,3.92,0c0.66-0.46,1.9-2.01,1.38-2.01h-3.88
		c0,0-3.51,0.73-4.69,0c-1.18-0.72-1.01-1.64-2.62-1.64c-1.61,0-5.35,0.86-6.84,0c-1.49-0.86-5.25-3.52-8.33-5.02
		c-3.08-1.51-6.09-9.98-6.09-9.98L211.22,54.35z"/>
	<path class="st2" d="M232.35,80.15l-1.96,1.11l0.45,1.53c0,0-0.45,1.33,0.53,2.06c0.98,0.74,2.92,4.3,3.47,3.93
		c0.55-0.37,0.48-1.52,0-2.01c-0.48-0.49-1.47-2.99-1.47-2.99L232.35,80.15z"/>
	<path class="st2" d="M258.94,82.14c0,0,10.1-0.64,13.42,0c3.32,0.64,3.55,1,2.5,1.63c-1.05,0.63-6.88,1.08-6.88,1.08l-7.25-1.5
		L258.94,82.14z"/>
	<path class="st2" d="M220.95,53.9c0,0,0.72-0.31,1.17,0c0.45,0.31,2.05,1.8,2.5,2.81c0.45,1.01,0.45,3.51,0,3.51
		s-2.5-2.79-2.5-2.79s-1.95-2.55-1.17-2.67C221.73,54.63,220.95,53.9,220.95,53.9"/>
	<path class="st2" d="M238.76,20.6c0,0,6.89,2.09,10.88-1.22c1.11-0.71,9.47-0.44,11.68,0.23c2.21,0.67,7.21,2.58,7.21,2.58
		s9.69,5.28,11.51,8.83c1.81,3.55,10.67,8.64,10.67,8.64s3.82,0.16,4.23-2.58c0.4-2.74,3.82,3.07,6.24-0.24
		c2.42-3.31,2.42,3.02,3.82,1.2c1.41-1.83,5.03-3.46,5.03-3.46s0.4-3.55-2.21-3.55c-2.62,0-6.34-2.5-7.85-2.5
		c-1.51,0-0.77-1.9-4.01-1.9c-3.24,0-3.64-7.85-6.46-7.65c-2.82,0.2-5.95-2.21-8.59-2.01c-2.64,0.2-4.7,1.68-11.74-4.09
		c-1.41,0-3.14-4.77-3.14-4.77s-7.1-3.02-7.1-3.62c0-0.6-6.31-5.64-7.29-4.23c-0.98,1.41,4.03,6.44,5.45,6.84
		c1.42,0.4,5.72,2.46,5.84,3.62c0.6,5.43,5.45,3.92,3.1,6.44c-1.69,1.81-3.3,0.02-4.11-0.2c-0.8-0.22-4.15-2.75-5.49-3.42
		c-1.35-0.67-8.79-5.84-8.79-4.63c0,1.29,4.08,3.2,2.04,2.82c-2.04-0.39-6.48-3.02-5.92-1.21c0.9,2.94,6.88,4.07,5.38,4.85
		c-1.5,0.78-5.21,3.8-6.5,3.8c-1.29,0-3.37,0.66-4.27,0.66C237.47,19.83,238.76,20.6,238.76,20.6"/>
	<path class="st2" d="M205.77,77.42c0,0-0.41,3.5-0.21,4.92c0.21,1.42,1.77,2.59,1.29,4.03c-0.48,1.44,1.41,1.77,1.41,2.94
		c0,1.17,2.94,2.07,2.94,2.07l-0.61-2.98c0,0-2.07-3.72-1.24-5.43c0.83-1.71,1-4.78,0-4.78C208.36,78.19,205.77,77.42,205.77,77.42"
		/>
</g>
</svg>
