<?xml version="1.0" encoding="UTF-8"?>
<svg id="Ebene_1" data-name="Ebene 1" xmlns="http://www.w3.org/2000/svg" viewBox="0 0 398.68 170.14">
  <defs>
    <style>
      .cls-1 {
        fill: #9c9100;
      }

      .cls-1, .cls-2, .cls-3 {
        stroke-width: 0px;
      }

      .cls-2 {
        fill: #fff;
      }

      .cls-3 {
        fill: #00404a;
      }
    </style>
  </defs>
  <g>
    <path class="cls-1" d="m391.71,152.07l-5.92-7.34-1.6-1.98h-2.61l8.28-24.9,2.32-6.97h-35.79l-.5,1.49c-2.12-1.79-4.92-1.8-6.39-1.8h-18.49c-3.73,0-6.31.91-8.13,2.97-2.16-2.66-5.57-2.66-7.25-2.66h-22.21c-5.6-4.89-12.45-9.94-15.51-14.95-1.39-2.28-1.78-5.28-2.88-6.98-3.04-4.72-8.23-7.1-11.09-9.45-2.14-.08-4.2-4.12-5.34-2.46.39-1.82-1.2-1.75-.82-2.88-1.81-.13-3.01-2.52-3.7-2.88-.09-.04-2.07.02-1.64-.82.47-.93-1.92-1.55-4.11-3.29-1.81-1.44-3.38-2.42-4.52-3.28-3.22-2.43-4.99-5.73-7.39-7.4-2.6-1.8-7.03-2.63-9.04-5.34-.95.25-3.24,1.71-3.7.41-1.52,2.17-3.91,2.58-6.5,2.65-.67,1.7-1.98,2.9-2.49,3.33-.32.26-.7.43-1.12.48-.29.04-.56.06-.83.06-.93,0-1.76-.24-2.46-.71-.8-.04-1.4-.35-1.77-.55-.1.02-.24.04-.35.06-.07.01-.14.02-.21.04,0,0,0,0,0,.01.13.62.3,1.39.2,2.25-.1.8-.46,1.42-.73,1.86.02.05.04.1.07.13.22.42.5.94.64,1.52.45,1.77.43,4.1.42,6.56,0,.6,0,1.2,0,1.79,0,.25.09.49.24.91.15.43.34.96.43,1.6,0,.04.38,3.6-.66,5.84.13,1.75-.04,3.65-.52,5.65-.19.8-.26,1.59-.34,2.42-.1,1.14-.2,2.32-.65,3.5-.81,2.13-2.14,3.52-3.33,4.75-.85.89-1.67,1.73-2.22,2.79-.18.34-.44.64-.77.84-1.38.9-1.94,1.77-1.97,3.12,0,.26.18.83.35,1.33.32.96.71,2.15.66,3.52-.02.41-.07.76-.11,1.04,0,.05-.02.12-.03.18.33.53.43,1.19.25,1.79l-.09.33c-.77,2.64-1.92,6.64-5.86,7.12-.19.03-.39.04-.58.04-1.16,0-2.06-.42-2.72-.73-.27-.13-.51-.24-.72-.31-.52-.16-.97-.51-1.25-.99-1.46-2.47-1.16-6.12-.88-9.66.11-1.4.22-2.72.22-3.91,0-.46-.09-.97-.19-1.5-.12-.64-.23-1.3-.23-2.02.03-2.41,1.15-4.56,2.95-5.78.04-.56.28-1.08.69-1.46.26-.24.55-.42.87-.53.1-.49.24-1.08.54-1.7.26-.54.63-.95.9-1.25.02-.03.05-.06.07-.08-.04-.22-.11-.53-.16-.75-.1-.41-.21-.87-.28-1.37-.27.11-.55.17-.84.17-.21,0-.42-.03-.62-.09-.48-.14-.89-.33-1.26-.5-.38-.18-.7-.33-.91-.33-.01,0-.03,0-.04,0-.5.93-.76,3.88-.89,5.35-.09.92-.16,1.79-.27,2.51-.07.48-.21.89-.33,1.21-.04.12-.1.28-.11.33-.03.21-.03.48-.02.8.01.48.02,1.03-.1,1.64-.23,1.26-.74,2.26-1.16,3.06-.26.5-.52,1.02-.54,1.31-.02.35.05.8.14,1.32.15.89.34,2,.17,3.34-.09.71-.25,1.55-.42,2.45-.15.77-.3,1.57-.41,2.33-.13.88-.35,1.73-.54,2.47-.14.54-.34,1.35-.36,1.66.06.15.24.46.36.67.43.77.98,1.72,1.08,2.9.04.5-.05.94-.14,1.26.11.26.24.62.31,1.06.09.58.08,1.13.08,1.59l71,.37.2,1.56.59,4.63h3.7l-3.89,11.71-4.38,13.18-2.32,6.98h147.42l-6.97-8.63Zm-128.7-28.12l-.2-1.29h.26l-.06,1.29Zm23.39-13.06h-25.45l-.63-3.99-17.83-5.51,8.99-6.73-9.07-7.92,5.41-4.3-16.01-24.89,10.79,9.96,15.59,12.67,7.9,5.43,5.71,5.28,2.84,7.84,13.72,12.16h-1.96Z"/>
    <path class="cls-1" d="m175.4,112.96c-.15-.68-.22-1.36-.28-1.95-.05-.47-.09-.91-.16-1.24-.02-.09-.1-.27-.17-.44-.15-.34-.33-.77-.42-1.3-.11-.6-.13-1.21-.15-1.75-.01-.35-.02-.67-.05-.94-.05-.35-.1-.65-.16-.93-.21-1.12-.43-2.27.2-4.32.28-.92.63-1.6.94-2.2.45-.89.75-1.48.78-2.74.02-1.19-.22-2.47-.48-3.82-.13-.71-.27-1.45-.38-2.2-.25-1.72-.24-3.47-.23-5.15,0-.96,0-1.89-.04-2.76-.34-.11-.69-.27-1.02-.53-.12-.09-.21-.2-.3-.31-.61.9-1.36,1.84-2.38,2.81-1.15.94-3.28-.65-4.11,2.05-6.42.36-8.95,4.13-11.51,7.4-1.87-.11-2.39.78-3.29,1.64-3.08,2.04-3.62,4.48-6.16,6.57-.93,1.34-2.26,2.37-4.52,3.29,1,.97-.61.77-.41,2.06-2.08.12-2.86.47-4.11,0l-4.71,1.5-1.21,2.07-2.57.95h-53.29c-1.37,0-2.57.13-3.65.38l.12-.38H0l7.87,8.83,6.54,7.34,1.58,1.78h1.48l-8.27,24.9-2.32,6.98h48.26l.6-1.8c2.13,1.8,4.96,1.8,6.45,1.8h88.75l.62-4.59c.08-.55.34-1.9,1.32-4.83.39-1.17.97-2.63,1.53-4.04.66-1.67,1.42-3.57,2.03-5.39.13-.39.24-.78.33-1.15.34-1.43.38-2.74.12-3.94,1.41-1.18,2.45-2.88,3.21-5.19l3.08-9.26,12.13.06c.02-.86.1-1.69.21-2.42.1-.74.3-1.22.42-1.5,0-.02.01-.03.02-.05.24-1.7-.08-3.08-.44-4.69l-.13-.58Z"/>
  </g>
  <path class="cls-3" d="m251.26,160.7l2.32-6.98,4.38-13.18,3.89-11.71h-3.7l-.59-4.63-.2-1.56-71-.37h-2.22c0-.42.02-.85-.05-1.25-.08-.47-.39-.9-.4-1.34,0-.33.23-.78.2-1.13-.11-1.3-1.34-2.5-1.43-3.5-.1-1.04.65-2.91.92-4.73.26-1.72.67-3.51.82-4.73.22-1.8-.41-3.14-.33-4.52.09-1.47,1.38-2.73,1.73-4.63.14-.76-.01-1.55.1-2.36.07-.49.36-1.01.44-1.55.43-2.84.39-8.85,2.37-9.56.2-.07.39-.12.57-.15.06,0,.12,0,.18-.01.1,0,.19-.03.29-.03.02,0,.04,0,.06,0,.05,0,.09,0,.14,0,.11,0,.22.02.33.04.05,0,.1.02.15.03.11.03.21.06.32.09.03.01.07.02.1.03.14.05.27.11.4.16.04.02.08.04.12.05.12.05.24.11.35.16.09.04.19.08.28.12.05.02.09.04.14.06.13.05.27.11.41.15.02-1.25.37-2.97.37-4.21,0-.63-.46-1.48.25-1.64.6.43.61,1.39,1.04,2.16.27.48.71.8.91,1.34.43,1.2.28,2.49.47,4.01.15,1.2.65,2.35.44,3.19-.15.58-.88,1.07-1.16,1.64-.53,1.1-.33,2.26-1.08,3.09-.05.04-.09.07-.13.08-.01,0-.02,0-.04,0-.01,0-.03,0-.04,0,0,0-.01,0-.02,0-.04,0-.07-.02-.11-.04,0,0-.01-.01-.03-.01-.04-.03-.08-.07-.11-.12-.03-.03-.06-.06-.08-.09-.01,0-.02-.02-.04-.03-.03-.02-.06-.04-.09-.04,0,0-.01,0-.02,0-.03,0-.06.01-.1.05.02.58-.17.93-.32,1.34-1.38.59-2.6,2.13-2.63,4.32-.01,1.05.41,2.22.41,3.5,0,4.26-1.24,9.76.35,12.44.13.04.26.09.38.14.05.02.09.04.13.06.08.03.16.07.24.1.07.03.14.06.21.1.08.04.17.08.25.12.07.04.14.07.21.1.05.02.11.04.16.06.06.02.13.05.2.07.05.02.11.04.17.05.07.02.13.04.2.06.06.01.11.02.17.04.07.01.15.02.22.03.06,0,.11,0,.17.01.12,0,.25,0,.38-.01,2.59-.31,3.36-3.33,4.09-5.86-.64-.75-.23-1.49-.2-2.47.06-1.8-1.04-3.43-1.01-4.82.05-2.39,1.3-3.85,2.98-4.94,1.53-2.94,4.25-4.17,5.44-7.3.62-1.63.39-3.52.9-5.65.41-1.72.65-3.72.39-5.65.76-.72.91-3.72.74-5.04-.12-.93-.67-1.66-.68-2.78-.02-2.81.13-5.92-.34-7.82-.19-.77-.98-1.69-.92-2.36.06-.61.8-1.21.89-1.95.1-.87-.34-1.85-.34-2.72,0-.52.16-1.01.7-1.39.2.03.4.03.6.02.07,0,.13,0,.2-.02.16-.02.32-.04.48-.07.22-.04.44-.08.65-.11.04,0,.08,0,.12-.01.1,0,.21-.03.31-.03.07,0,.14,0,.21.01.12.01.24.05.35.1.03,0,.06.02.08.04.03.02.06.03.1.05.08.04.15.08.23.12.1.05.2.1.31.14.03.01.06.02.09.03.12.04.24.07.37.07.06,0,.11,0,.17-.02.03,0,.07,0,.11-.01.09-.02.2-.06.31-.12.09.13.21.26.33.37.04.03.09.06.13.09.09.07.19.14.31.19.06.03.13.05.2.07.11.04.24.07.37.09.08.01.17.02.26.03.21.01.43.02.69-.02.48-.39,1.01-.95,1.42-1.6.43-.69.73-1.49.66-2.31-.09-.95-1.04-1.51-1.13-2.36,1.04-.88.5-1.68.13-2.57-.2-.48-.49-1.01-.48-1.54.01-1.17.72-2.32.91-3.5.2-1.19.62-2.67.55-3.91-.02-.35-.24-.69-.32-1.03-.22-.95-.27-2.1-.54-3.19-.25-1.01-.73-1.98-.87-2.88-.3-1.86.66-3.82.1-5.76-.33-.35-.54-.83-.71-1.33-.58-.41-.96-1-1.84-1.13-.24-.41-.61-.69-.83-1.13-.67-.06-.93-.7-1.44-1.03-.81-.52-1.93-.54-2.76-1.13.42-1.18.98-2.22,1.32-3.49.48-.55,1.22-.61,1.55-1.34.31-.71.06-1.62.21-2.46.19-1.15.77-1.61,1.33-2.37-.4-1.29.34-3.01.07-4.32-.12-.54-.54-.86-.69-1.44-.14-.51.09-.91-.19-1.33-.27-.4-1.2-.52-1.67-.82-.28-.17-.4-.54-.66-.72-1-.7-3.01-1.13-4.6-1.13-2.11,0-3.1,1.27-4.31,2.47-.41.41-.72.85-1.14,1.34-.41.48-1.07.9-1.24,1.34-.16.42-.03.85-.1,1.13-.08.33-.27.5-.38.83-.09.26.11.69-.39.93.7.37-.12,1.16.57,1.64-.54,1.05-1.08,2.55-.62,3.6.27.6,1.23.82,1.5,1.65.34,1.06.05,1.87.03,3.19-.11-.02-.21-.02-.32-.02-.19,0-.4.03-.62.08-.25.05-.51.1-.82.14-.22.03-.46.04-.7.04,0,0-.02,0-.03,0-.18,0-.36,0-.54,0-.14,0-.28,0-.42,0-.06,0-.12,0-.19,0-.18.01-.34.03-.49.06-.65.15-1.75.78-2.25,1.23-.27.23-.34.61-.58.82-.19.16-.79.35-1.18.62-.43.29-.74.56-1.09.72-.59.26-1.13.1-1.86.31-.88.25-2.12,1.1-2.7,1.64-1.19,1.1-2.43,2.82-3.14,4.32-.37.78-.56,1.8-1.04,2.57-.57.9-2.13,1.68-3.09,2.57-1.09,1.02-2.03,2.9-3.15,4.42-.55.75-1.03,1.51-1.52,2.26-.79,1.2-1.9,1.99-2.13,3.29-.04.23-.06.44-.08.64,0,.07,0,.13,0,.2,0,.13-.01.27,0,.39,0,.07.02.14.02.21.01.11.02.22.04.32.01.07.03.13.05.2.03.1.05.19.08.28.02.06.05.12.08.19.04.09.07.17.11.24.03.06.07.12.11.17.05.07.09.14.15.21.04.05.09.1.13.15.06.06.11.12.17.18.05.05.1.09.16.13.07.05.13.11.2.15.06.04.11.08.18.12.07.04.15.09.23.13.06.04.13.07.19.1.08.04.17.07.25.11.07.03.14.05.21.08.09.03.18.06.27.09.08.02.15.04.23.06.1.02.19.04.29.07.08.02.15.03.24.05.1.02.21.03.31.05.08.01.16.03.25.03.11.01.22.02.33.03.08,0,.17.01.25.02.11,0,.23.01.35.01.09,0,.17,0,.26,0,.19,0,.38,0,.57,0,.29-.01.58-.05.86-.11.02,0,.04,0,.06,0,.28-.06.56-.13.84-.2.26-.07.51-.13.76-.18.04,0,.09-.02.13-.03.24-.05.48-.08.72-.08.02,0,.05,0,.07,0,.07,0,.13,0,.2,0,.09-.05.18-.1.28-.16.05-.03.1-.07.15-.1.07-.04.13-.08.2-.13.06-.04.13-.08.2-.12.04-.02.08-.04.12-.07.07-.04.14-.08.21-.12.04-.02.07-.04.11-.05.09-.05.19-.08.28-.12.01,0,.03-.01.04-.02.11-.04.22-.06.34-.08.03,0,.06,0,.1,0,.07,0,.13-.02.2-.02.01,0,.03,0,.04,0,.15,0,.31.02.47.07-.65,2.03-1.74,3.57-1.96,6.07.9.04,2.21.58,2.12,1.54-.06.56-.77.87-.93,1.34-.29.8,0,1.69-.23,2.57-.39,1.52-1.62,3.12-2.25,4.73-.51,1.29-.43,2.47-.83,3.7.8,3.48-.43,7.33-1.22,10.79-.16.67-.29,1.33-.4,1.96.39.31,1.17.25,1.71.41.42,2.95-.04,6.37.4,9.46.3,2.15.92,4.27.88,6.37-.06,2.76-1.18,3.5-1.81,5.56-.62,2.01-.17,2.67.03,4.32.1.82.04,1.76.19,2.57.1.54.44,1.05.57,1.65.21.94.2,2.11.44,3.19.42,1.9.95,3.78.59,6.17-.07.44-.32.66-.43,1.44-.1.69-.16,1.42-.18,2.13h-2.22s-12.13-.07-12.13-.07l-3.08,9.26c-.77,2.31-1.8,4.01-3.21,5.19.26,1.19.21,2.51-.12,3.94-.09.38-.2.76-.33,1.15-.6,1.82-1.36,3.71-2.03,5.39-.56,1.41-1.14,2.86-1.53,4.04-.97,2.93-1.24,4.29-1.32,4.83l-.62,4.59h-8.74l-1,6.57,119.82,3.03.41-9.44h-10.17Zm-43.8-110.94c.23-1.04.05-2.23.29-3.29.19-.86.88-2.2.72-3.6.05-.13.2-.16.23-.31h.3c.61,1.53,1.03,3.01.47,5.14-.29,1.11-1.14,1.86-1.58,2.88-.27.63-.03,1.36-.66,1.75-.73-.68.03-1.69.22-2.57Zm-26.73-9.37s-.07.02-.1.03c-.14.04-.28.09-.43.12-.03,0-.07,0-.1.02-.12.02-.23.03-.35.04-.03,0-.05,0-.08,0-.02,0-.03,0-.05,0-.08,0-.16-.02-.24-.03-.04,0-.08,0-.12-.02-.12-.03-.23-.07-.33-.14.89-.82,1.85-1.56,2.57-2.57.05-.01.09-.02.12-.02.01,0,.01,0,.02,0,.06,0,.11.03.15.06.03.03.08.04.12.05.03,0,.05.01.09,0-.11.78-.34,1.42-.5,2.16-.13.05-.28.11-.44.17-.11.04-.23.08-.34.13Z"/>
  <g>
    <path class="cls-2" d="m163,149.55c.39-3.52,1.47-6.16,1.84-7.79.33-1.47.88-2.95.99-4.39.06-.88.35-1.95.58-2.98.23-1.02.56-.97.66-1.41.14-.62-.02-1.25.18-2.14.13-.58.58-1.27,1.39-1.26.72,0,1.08-.1,2.02-.1.55,0,1.12.28,1.01.86-.04.2-.14,1.04-.2,1.32-.31,1.45-.71,2.94-1.1,4.71-.08.36-.07.72-.15,1.12l-2.03,9.48c-.17.8-.94,4.56-1.08,5.68-.12,1.16.69,2.21,2.04,2.24,1.39.02,2.81-1,3.19-2.41.36-1.33.21-2.14.56-3.41.73-2.77.82-5.39,1.6-8.33.25-1.02.5-2.06.62-3.07.28-2.23,1.11-4.39,1.25-5.96.25-1.63.88-2.01,1.77-2,.63,0,.96-.14,1.63-.05.58.04.98.62.78,1.48-1.08,4.67-1.42,8.49-1.94,10.27-.38,1.31-.38,2.67-.77,4-.73,2.59-.69,4.5-1.38,6.93-.26.85-.66,1.54-1.14,2.4-.41.69-.94,1.55-1.37,1.9-2.09,1.63-4.48,2.17-6.79,2.12-.77-.01-1.25-.11-1.74-.34-.75-.33-1.25-.34-1.84-.92-1.71-1.65-1.49-3.86-1.09-5.62.18-.81.46-1.66.53-2.34Zm4.92-16.52c.13,0,.19-.11.22-.23.05-.23-.03-.23-.17-.39-.1-.12-.18.04-.2.16-.06.28-.11.47.15.47Z"/>
    <path class="cls-2" d="m180.32,155.74c.19-1.04.5-1.99.69-2.99.08-.47.02-.9.11-1.37.02-.86.29-2.09.54-2.97.6-2.3.78-4.75,1.32-6.97.56-2.35.76-4.64,1.38-7.1.28-1.07.27-2.16.5-3.41.13-.74.61-1.23,1.55-1.22.59,0,1.11.24,1.72.21.99-.07,1.4.53,1.18,1.81-.34,2-.61,2.78-.8,3.93-.08.47-.08.67-.34,2.2-.42,2.18-.61,4.34-1.17,6.57-.45,1.82-.6,3.76-.98,5.96-.12.68-.39,1.24-.5,1.88-.06.38-.05.51-.06,1.12,0,.83.05,1.05.88,1.19.88.14,1.63.03,2.69.17,1.11.15,2.18,0,3.26.1.45.05.92.19.81.93-.07.48-.14,1.27-.27,1.76-.23.87-.66,1.32-1.94,1.29-1.37-.02-2.56-.04-4.32-.17-1.72-.12-1.71.06-5.09.05-1-.02-1.25-.64-1.38-.95-.28-.72.09-1.23.23-2.02Zm2.09,1.26c-.31,0-.5.3-.73.52-.17.17-.06.35.17.36.41,0,.68-.25.75-.65.03-.17.04-.22-.19-.22Z"/>
    <path class="cls-2" d="m198.09,153.99c.12-.82.36-1.6.5-2.59.35-2.47.51-5.09.86-7.54.42-2.92.9-5.64,1.28-8.36.13-.88,0-1.87-.95-1.84-.83.03-1.67-.1-2.5-.11-.91-.01-1.31-.49-1.21-1.12.09-.54.05-.9.22-1.44.19-.66.59-1,1.15-1,1.58.06,2.63-.09,4-.04,1.58.06,3.24-.11,4.81.06,1.15.13,2.41.06,3.61.04.66-.04.8.52.79.94-.02.87-.36,1.17-.53,1.88-.11.51-.66.75-1.22.73-.87,0-1.77-.1-2.65-.03-.57.04-1.04.31-1.12.86-.2,1.55-.21,2.92-.64,4.49-.5,1.79-.33,4.84-.87,7.58-.38,1.81-.36,3.73-.73,5.48-.47,2.16-.36,4.09-.8,6.07-.12.53-.61,1.1-1.35,1.09-.82-.01-1.5-.12-2.41-.22-.5-.05-.74-.59-.69-.99.1-.71.35-3.42.43-3.94Zm.28,3.16c.32.01.66-.16.8-.47.12-.26-.06-.57-.27-.41-.47.4-.67.26-.73.65-.03.18-.03.23.2.23Z"/>
    <path class="cls-2" d="m210.53,155.2c.33-2.13.34-4.21.78-6.81.1-.5.22-.75.29-1.3.05-.47-.05-.76,0-1.22.13-1.13.49-2.29.64-3.61l.26-2.29c.07-.61.3-1.46.37-2.07.05-.48-.33-.98-.04-2.33.29-1.43.29-2.5.43-3.75.16-1.41,1.35-1.63,2.66-1.73,1.79-.13,3.36.12,5.22.14,2.82.03,4.98,1.07,5.33,3.73.07.68.37,1.36.26,2.08-.28,1.89-.02,3.11-.71,5.03-.29.78-.46,1.19-.91,1.85-.45.57-1.31,1.14-1.36,1.69-.04.54.34.76,1.07,1.69.9,1.16.93,3.03.75,4.65-.18,1.68-.12,3.25-.41,5.05-.1.71-.08,1.55-.1,2.44,0,.62-.41,1.02-1.01,1.01-.79-.01-1.64.11-2.41-.05-.96-.19-1.4-.91-1.29-2.2.08-.89.21-1.76.24-2.64.07-1.18.26-3.77.31-4.33.17-1.83-1.23-3.34-3.12-3.37-1.53-.02-1.68.61-1.79,1.63-.13,1.24-.21,2.52-.33,3.63-.09.95-.22,1.69-.3,2.53-.07.69-.1,1.35-.17,2.06-.09.83-.14,2.17-1.45,2.37-.37,0-1.01.34-2.42.18-.55-.05-1.02-.38-1.07-1.18-.04-.79.13-1.94.29-2.86Zm7.12-24.43c-.22,0,.03.55,0,.78-.03.24.35.44.65.44.22,0,.22-.04.24-.19.04-.35-.5-1.03-.89-1.03Zm.51,12.24c3.79.05,3.74-3.36,3.96-5.63.11-1.21-.26-2.41-1.07-3.18-.48-.44-1.19-.33-2.5-.35-.96-.01-1.17.39-1.18,1.26-.08,2.94-.55,4.47-.73,6.19-.18,1.69.19,1.7,1.52,1.71Z"/>
    <path class="cls-2" d="m228.86,155.86c.13-1.71,1.1-3.08,1.19-4.42.09-1.34.48-2.27.69-3.38,1.17-5.9,2.25-9.33,3.14-12.95.88-3.52-.08-4.86,3.49-4.83,3.79.05,4.52.33,4.44,1.98-.03.71,1.1,7.25,1.45,11.81.21,2.61,1.02,6.17,1.4,9.64.07.7.47,3.89.44,4.51-.04,1.12-.2,1.57-3.52,1.51-1.59-.03-1.09-2.7-1.34-4.29-.36-2.15-3.89-1.55-5.69-1.59-2.02-.03-1.61,3.59-2.39,4.91-.41.76-.71.92-2.29.9-.93-.01-1.59-.51-1.54-1.28.08-1.11.41-1.19.51-2.52Zm7.03-5.63c1.46.02,3.32.27,3.4-1.23.1-2.04-.3-3.91-.51-6.08-.18-1.74-.24-4.85-1.21-4.86-.4,0-.6.36-.66.71-.29,1.27-.58,2.38-1.03,3.86-.12.42-.34.54-.43,1.2,0,.25.02.5,0,.87-.09,1.56-.66,2.77-.75,4.22-.05.82.38,1.29,1.2,1.31Zm5.73-.42c-.32,0-.74.2-.75.46,0,.26.07.39.3.39.41.01.65-.24.67-.63,0-.17,0-.21-.22-.22Z"/>
  </g>
  <g>
    <polygon class="cls-2" points="258.6 155.39 269.2 123.52 262.81 123.52 261.87 116.18 286.39 116.18 283.96 123.52 278.17 123.52 267.58 155.39 258.6 155.39"/>
    <path class="cls-2" d="m297.61,155.39l3.87-11.63c.54-1.64,1.37-4.12-1.17-4.12h-3.47c-.82,0-2.83.33-3.83,3.33l-4.13,12.42h-8.98l13.03-39.21h22.71c3.42,0,3.95.66,2.99,3.69l-3.33,10.02c-.99,2.98-2.02,3.53-4.6,3.66l-.98,3.01c1.6.07,2.94.55,1.92,3.6-.55,1.65-1.24,3.41-1.92,5.1-.61,1.56-1.2,3.04-1.63,4.33-.95,2.87-1.38,4.64-1.54,5.79h-8.94Zm4.1-31.87c-2.06,0-2.66,1.28-3.05,2.48l-1.27,3.84c-.4,1.2-.65,2.47,1.41,2.47h3.22c1.75,0,3.93-1.26,4.86-4.06l.2-.61c1.01-3.04-.52-4.12-2.14-4.12h-3.23Z"/>
    <path class="cls-2" d="m331.56,155.39l3.82-11.49h-8.91l-3.82,11.49h-8.98l11.91-35.84c1-3.02,1.97-3.67,5.44-3.67h18.49c3.42,0,3.94.65,2.94,3.67l-11.91,35.84h-8.98Zm4.21-31.87c-2.54,0-3.36,2.48-3.9,4.12l-2.97,8.93h8.91l2.96-8.93c.55-1.64,1.37-4.12-1.1-4.12h-3.9Z"/>
    <polygon class="cls-2" points="347.19 155.39 360.21 116.18 369.2 116.18 356.17 155.39 347.19 155.39"/>
    <polygon class="cls-2" points="362.82 155.39 375.85 116.18 384.83 116.18 374.24 148.06 381.66 148.06 387.58 155.39 362.82 155.39"/>
  </g>
  <g>
    <polygon class="cls-2" points="46.28 123.37 48.72 116.03 33.28 116.03 27.26 116.03 11.83 116.03 18.37 123.37 24.83 123.37 14.24 155.24 35.69 155.24 38.12 147.9 25.65 147.9 28.47 139.42 40.94 139.42 43.38 132.09 30.91 132.09 33.81 123.37 46.28 123.37"/>
    <polygon class="cls-2" points="42.35 155.24 55.37 116.03 64.36 116.03 51.33 155.24 42.35 155.24"/>
    <path class="cls-2" d="m62.2,155.24c-3.47,0-4-.65-3-3.67l10.59-31.88c1.01-3.02,1.97-3.67,5.44-3.67h22.71l-2.44,7.34h-15.47c-2.48,0-3.34,2.59-3.66,3.57l-5.78,17.39c-.33.98-1.19,3.58,1.29,3.58h5.47c2.21,0,3.04-1.13,3.61-2.84l1.85-5.58h-5.65l2.44-7.33h12.99l-7.67,23.09h-22.71Z"/>
    <polygon class="cls-2" points="91.57 155.24 104.59 116.03 126.04 116.03 123.61 123.37 111.14 123.37 108.24 132.09 120.71 132.09 118.27 139.42 105.8 139.42 102.98 147.9 115.45 147.9 113.02 155.24 91.57 155.24"/>
    <path class="cls-2" d="m137.38,155.24l3.87-11.64c.54-1.64,1.37-4.12-1.17-4.12h-3.47c-.82,0-2.83.32-3.83,3.33l-4.13,12.43h-8.98l13.03-39.21h22.71c3.42,0,3.95.65,2.99,3.69l-3.33,10.02c-.99,2.98-2.02,3.53-4.6,3.66l-.97,3c1.52.07,2.94.54,1.91,3.61-.55,1.65-1.24,3.4-1.92,5.1-.63,1.56-1.21,3.04-1.64,4.33-.95,2.86-1.38,4.64-1.54,5.8h-8.94Zm4.1-31.87c-2.06,0-2.65,1.28-3.05,2.47l-1.27,3.83c-.4,1.19-.65,2.47,1.41,2.47h3.22c1.75,0,3.93-1.26,4.86-4.06l.2-.6c1.01-3.04-.52-4.12-2.14-4.12h-3.23Z"/>
  </g>
  <polygon class="cls-2" points="286.39 110.88 288.36 110.88 274.64 98.72 271.79 90.88 266.09 85.6 258.19 80.17 242.59 67.5 231.8 57.54 247.81 82.44 242.41 86.73 251.47 94.65 242.49 101.38 260.32 106.89 260.95 110.88 261.87 110.88 286.39 110.88"/>
</svg>