<?xml version="1.0" encoding="utf-8"?>
<!-- Generator: Adobe Illustrator 16.0.0, SVG Export Plug-In . SVG Version: 6.00 Build 0)  -->
<!DOCTYPE svg PUBLIC "-//W3C//DTD SVG 1.1//EN" "http://www.w3.org/Graphics/SVG/1.1/DTD/svg11.dtd">
<svg version="1.1" id="Layer_1" xmlns="http://www.w3.org/2000/svg" xmlns:xlink="http://www.w3.org/1999/xlink" x="0px" y="0px"
	 width="36.843px" height="54.753px" viewBox="128.501 301.965 36.843 54.753"
	 enable-background="new 128.501 301.965 36.843 54.753" xml:space="preserve">
<path fill="#968C1B" d="M146.922,301.965c-10.146,0-18.421,8.275-18.421,18.422c0,2.878,1.167,6.18,2.75,9.786
	c1.583,3.605,3.622,7.436,5.692,11.002c4.142,7.14,8.315,13.112,8.315,13.112l1.663,2.431l1.663-2.431c0,0,4.174-5.973,8.315-13.112
	c2.071-3.566,4.11-7.396,5.693-11.002c1.583-3.606,2.75-6.908,2.75-9.786C165.344,310.24,157.068,301.965,146.922,301.965z
	 M157.673,320.308c0,5.799-4.701,10.5-10.5,10.5s-10.5-4.701-10.5-10.5s4.701-10.5,10.5-10.5S157.673,314.51,157.673,320.308z"/>
</svg>
