<?xml version="1.0" encoding="UTF-8"?>
<svg id="Ebene_1" data-name="Ebene 1" xmlns="http://www.w3.org/2000/svg" viewBox="0 0 283.46 178.13">
  <defs>
    <style>
      .cls-1 {
        fill: #12120d;
        stroke-width: 0px;
      }
    </style>
  </defs>
  <path class="cls-1" d="m39.77,152.41c-2.99,0-4.64-1.39-4.64-4.64v-9.61h1.91v9.47c0,1.87.37,3.22,2.89,3.22h.61c2.51,0,2.89-1.36,2.89-3.22v-9.47h1.91v9.61c0,3.24-1.65,4.64-4.66,4.64h-.9Z"/>
  <polygon class="cls-1" points="56.53 152.24 50.08 141.13 50.08 152.24 48.26 152.24 48.26 138.16 50.16 138.16 56.71 149.27 56.71 138.16 58.53 138.16 58.53 152.24 56.53 152.24"/>
  <polygon class="cls-1" points="61.58 152.24 61.58 138.16 70.11 138.16 69.87 139.76 63.48 139.76 63.48 144.04 69.62 144.04 69.38 145.63 63.48 145.63 63.48 150.64 70.15 150.64 70.15 152.24 61.58 152.24"/>
  <g>
    <path class="cls-1" d="m82.51,148.54c0,2.38-1.59,3.87-4.93,3.87-1.73,0-3.4-.24-4.62-.53l.51-1.57c.92.25,2.61.51,4.05.51,2.18,0,3.09-.75,3.09-2.38v-.47c0-1.77-.67-2.26-2.34-2.26h-2.16c-2.24,0-3.25-1.26-3.25-3.38v-.73c.02-2.32,1.34-3.62,3.77-3.62h.45c1.4,0,3.79.22,5.25.43l-.53,1.53c-1.73-.24-3.36-.35-4.38-.37h-.51c-1.63,0-2.14.77-2.14,2.09v.55c0,1.16.27,1.87,1.75,1.87h2.22c2.32,0,3.77.93,3.77,3.56v.9Z"/>
    <path class="cls-1" d="m94.29,151.73c-.9.27-3.01.69-4.82.69-3.16,0-4.36-1.02-4.36-4.19v-5.74c0-3.19,1.08-4.5,4.4-4.5,1.43,0,3.19.17,4.66.47l-.37,1.53c-1.81-.29-2.97-.43-4.03-.43-2.54,0-2.75,1.06-2.75,3.32v5.23c0,2.12.39,2.73,2.71,2.73,1.26,0,2.77-.22,4.05-.59l.51,1.47Z"/>
    <path class="cls-1" d="m104.69,142.68c0-2.28-.83-3.16-3.09-3.16h-.33c-2.26,0-3.09.88-3.09,3.16v5.03c0,2.28.83,3.17,3.09,3.17h.33c2.26,0,3.09-.89,3.09-3.17v-5.03Zm-3.5,9.73c-3.32,0-4.91-1.55-4.91-4.7v-5.03c0-3.15,1.59-4.7,4.91-4.7h.49c3.32,0,4.91,1.55,4.91,4.7v5.03c0,3.15-1.59,4.7-4.91,4.7h-.49Z"/>
  </g>
  <polygon class="cls-1" points="125.69 152.24 122.51 140.94 119.3 152.24 116.91 152.24 113.59 138.16 115.63 138.16 118.16 150.13 121.43 138.62 123.59 138.62 126.85 150.13 129.39 138.16 131.41 138.16 128.11 152.24 125.69 152.24"/>
  <g>
    <path class="cls-1" d="m139.05,146.26c0-1.63-.53-2.3-2.43-2.3h-.08c-1.91,0-2.44.67-2.44,2.3v2.4c0,1.63.53,2.3,2.44,2.3h.08c1.91,0,2.43-.67,2.43-2.3v-2.4Zm-2.67,6.15c-3.34,0-4.19-1.61-4.19-3.97v-1.97c0-2.36.85-3.97,4.19-3.97h.39c3.34,0,4.19,1.61,4.19,3.97v1.97c0,2.36-.85,3.97-4.19,3.97h-.39Z"/>
    <path class="cls-1" d="m143.35,152.24v-9.55h1.38l.31.91c.79-.79,1.55-1.08,2.65-1.08.33,0,.95.06,1.34.22l-.43,1.51c-.37-.12-.94-.18-1.24-.18-1.16,0-1.75.53-2.1.88v7.29h-1.91Z"/>
    <path class="cls-1" d="m155.16,152.1c-.81.22-1.53.31-1.99.31-1.39,0-1.97-.83-1.97-1.87v-12.16l1.91-.41v11.93c0,.67.08.96.86.96.22,0,.59-.08.92-.15l.26,1.39Z"/>
    <path class="cls-1" d="m163.18,144.47c-.83-.22-1.93-.41-2.79-.41-1.59,0-1.81.84-1.81,2.14v2.75c0,1.42.43,1.95,2.2,1.95.55,0,1.41-.04,2.4-.28v-6.15Zm0-6.01l1.91-.43v13.78c-.79.25-2.77.61-4.66.61-2.4,0-3.75-.92-3.75-3.42v-2.91c0-1.99.59-3.58,3.32-3.58,1.1,0,2.16.25,3.18.45v-4.5Z"/>
  </g>
  <polygon class="cls-1" points="181.37 152.24 181.37 145.75 175.38 145.75 175.38 152.24 173.47 152.24 173.47 138.16 175.38 138.16 175.38 144.18 181.37 144.18 181.37 138.16 183.28 138.16 183.28 152.24 181.37 152.24"/>
  <g>
    <path class="cls-1" d="m192.35,145.93c0-1.33-.53-1.95-2.1-1.95h-.41c-1.53,0-2.16.61-2.16,1.95v.59h4.68v-.59Zm1.93,5.74c-.83.31-2.61.75-4.62.75-2.55,0-3.89-.88-3.89-3.46v-2.65c0-2.38,1.16-3.79,3.87-3.79h.83c2.69,0,3.79,1.42,3.79,3.79v1.59h-6.58v1.02c0,1.45.51,1.97,2.08,1.97,1.43,0,2.93-.29,4.05-.65l.47,1.43Z"/>
    <path class="cls-1" d="m196.6,152.24v-9.55h1.38l.31.91c.79-.79,1.55-1.08,2.65-1.08.33,0,.95.06,1.34.22l-.43,1.51c-.37-.12-.94-.18-1.24-.18-1.16,0-1.75.53-2.1.88v7.29h-1.91Z"/>
  </g>
  <path class="cls-1" d="m204.38,152.23h1.91v-9.55h-1.91v9.55Zm-.08-14.11v1.93l2.07-.45v-1.47h-2.07Z"/>
  <g>
    <path class="cls-1" d="m216.34,151.92c-.81.28-2,.49-3.13.49-1.89,0-2.69-.96-2.69-2.61v-5.62h-1.97v-1.49h1.97v-3.2l1.91-.41v3.62h3.73v1.49h-3.73v4.99c0,1.41.16,1.73,1.36,1.73.55,0,1.55-.14,2.16-.32l.39,1.34Z"/>
    <path class="cls-1" d="m224.83,147.78h-2.5c-1.55,0-2.1.49-2.1,1.61v.25c0,.89.43,1.2,1.44,1.2,1.06,0,3.16-.81,3.16-.81v-2.26Zm.47,4.46l-.26-.77c-1.57.69-2.79.94-3.97.94-1.77,0-2.75-1.02-2.75-2.5v-.49c0-1.94,1.26-3.03,3.67-3.03h2.83v-.65c-.02-1.2-.24-1.73-1.99-1.73-1,0-2.77.23-3.6.41l-.39-1.49c1.67-.31,3.17-.43,4.37-.43,2.22,0,3.52.69,3.52,3.15v6.58h-1.43Z"/>
    <path class="cls-1" d="m233.65,147.7c1.55,0,2.12-.65,2.12-1.91s-.65-1.93-2.12-1.93h-.63c-1.45,0-2.1.73-2.1,1.93s.57,1.91,2.1,1.91h.63Zm.25,8.02c1.83,0,2.83-.51,2.83-1.85,0-1.26-.67-1.57-2.12-1.57h-2.5c-1.3,0-1.69.92-1.69,1.73v.14c0,.98.77,1.55,2.45,1.55h1.02Zm-1.22,1.4c-2.81,0-4.07-1.08-4.07-2.73v-.1c.02-.94.59-2.04,1.59-2.28-.57-.14-.88-.61-.88-1.08,0-.69.53-1.41,1.41-2.24-1.1-.41-1.63-1.55-1.63-2.79,0-2.14,1.34-3.38,4.01-3.38h.43c.67,0,1.38.12,1.97.35l3.13-.22v1.41h-1.73c.39.45.67,1.04.67,1.79,0,2.14-1.38,3.2-4.05,3.2h-.37c-.33,0-.63,0-1.14-.08-.31.33-.92,1.02-.92,1.39,0,.43.31.51.96.51h2.85c2.03,0,3.64.73,3.64,2.93,0,2.32-1.79,3.3-4.91,3.3h-.94Z"/>
    <path class="cls-1" d="m247.21,145.93c0-1.33-.53-1.95-2.1-1.95h-.41c-1.53,0-2.16.61-2.16,1.95v.59h4.68v-.59Zm1.93,5.74c-.83.31-2.61.75-4.62.75-2.55,0-3.89-.88-3.89-3.46v-2.65c0-2.38,1.16-3.79,3.87-3.79h.83c2.69,0,3.79,1.42,3.79,3.79v1.59h-6.58v1.02c0,1.45.51,1.97,2.08,1.97,1.43,0,2.93-.29,4.05-.65l.47,1.43Z"/>
    <path class="cls-1" d="m16.51,169.24c0,2.53-1.77,4.13-5.44,4.13-2.1,0-4.13-.37-5.35-.71l.87-2.56c.89.24,2.67.63,4.46.63,1.59,0,2.2-.63,2.2-1.65v-.33c0-1.14-.53-1.47-1.87-1.47h-1.73c-2.63,0-3.91-1.49-3.91-3.85v-.37c.06-2.69,1.65-4.11,4.4-4.11h.47c1.79,0,4.58.31,5.85.51l-.94,2.5c-1.45-.18-3.54-.35-4.62-.37h-.53c-1.04,0-1.39.57-1.39,1.39v.39c0,.71.29,1.2,1.27,1.2h2.03c2.59,0,4.23,1.06,4.23,3.97v.71Z"/>
  </g>
  <polygon class="cls-1" points="27.95 173.19 26.06 166.24 24.17 173.19 20.16 173.19 17.23 163.07 20.63 163.07 22.25 170.33 24.19 163.25 27.93 163.25 29.87 170.33 31.48 163.07 34.88 163.07 31.95 173.19 27.95 173.19"/>
  <path class="cls-1" d="m36.39,163.07h3.2v10.12h-3.2v-10.12Zm-.08-1.37v-2.71h3.36v2.02l-3.36.69Z"/>
  <g>
    <path class="cls-1" d="m50.68,170.21c0,1.61-1.26,3.16-4.52,3.16-2.3,0-3.81-.41-4.72-.69l.79-2.38c1.18.31,2.69.55,3.87.55.98,0,1.4-.2,1.4-.85,0-.51-.35-.71-.98-.71h-1.55c-1.79,0-3.54-.69-3.54-2.85v-.2c.02-2.48,1.85-3.36,3.87-3.36,1.85,0,3.79.22,5.09.43l-.79,2.38c-1.46-.22-2.73-.34-4.03-.34-.77,0-.98.37-.98.79,0,.47.21.71.84.71h1.45c1.77.02,3.79.47,3.79,2.97v.37Z"/>
    <path class="cls-1" d="m61.27,170.21c0,1.61-1.26,3.16-4.52,3.16-2.3,0-3.81-.41-4.72-.69l.79-2.38c1.18.31,2.69.55,3.87.55.98,0,1.4-.2,1.4-.85,0-.51-.35-.71-.98-.71h-1.55c-1.79,0-3.54-.69-3.54-2.85v-.2c.02-2.48,1.85-3.36,3.87-3.36,1.85,0,3.79.22,5.09.43l-.79,2.38c-1.46-.22-2.73-.34-4.03-.34-.77,0-.98.37-.98.79,0,.47.21.71.84.71h1.45c1.77.02,3.79.47,3.79,2.97v.37Z"/>
  </g>
  <path class="cls-1" d="m73.94,162.23l-1.77,5.85h3.56l-1.79-5.85Zm3.2,10.97l-.83-2.56h-4.74l-.82,2.56h-3.56l4.95-14.07h3.6l4.93,14.07h-3.54Z"/>
  <g>
    <path class="cls-1" d="m86.87,172.88c-1.18.37-2.12.49-2.63.49-1.98,0-2.55-1.12-2.55-2.36v-11.53l3.21-.65v11.22c0,.45.15.73.71.73.22,0,.51-.06.85-.16l.43,2.26Z"/>
    <path class="cls-1" d="m94.79,166.65c0-.87-.29-1.22-1.06-1.22-.53,0-1.39.23-2.26.55v4.5c.59.17,1.51.37,2.2.37.92,0,1.12-.45,1.12-1.16v-3.05Zm-6.53,11.36v-14.94h2.38l.39.69c1.24-.61,2.42-.87,3.44-.87,2.77,0,3.52,1.61,3.52,3.75v3.21c0,2.67-1.53,3.52-3.79,3.52-.92,0-2.14-.26-2.73-.41v4.4l-3.2.65Z"/>
    <path class="cls-1" d="m108.93,170.21c0,1.61-1.26,3.16-4.52,3.16-2.3,0-3.81-.41-4.72-.69l.79-2.38c1.18.31,2.69.55,3.87.55.98,0,1.4-.2,1.4-.85,0-.51-.35-.71-.98-.71h-1.55c-1.79,0-3.54-.69-3.54-2.85v-.2c.02-2.48,1.85-3.36,3.87-3.36,1.85,0,3.79.22,5.09.43l-.79,2.38c-1.46-.22-2.73-.34-4.03-.34-.77,0-.98.37-.98.79,0,.47.21.71.85.71h1.45c1.77.02,3.79.47,3.79,2.97v.37Z"/>
    <path class="cls-1" d="m113.98,174.41c1.81-.63,2.22-1.24,2.22-2.65v-12.64h3.21v12.36c0,1.95-.28,4.52-4.5,5.11l-.93-2.18Z"/>
    <path class="cls-1" d="m128.52,173.19l-.37-.67c-.96.49-1.99.85-3.11.85-2.85,0-3.61-1.57-3.61-3.62v-6.68h3.2v6.51c0,.81.16,1.24.98,1.24.63,0,1.45-.25,2.08-.51v-7.23h3.2v10.12h-2.38Z"/>
    <path class="cls-1" d="m139.4,173.19v-6.51c0-.81-.22-1.28-1.02-1.28-.61,0-1.51.29-2.12.51v7.27h-3.21v-10.12h2.38l.37.67c.91-.43,1.97-.84,3.19-.84,2.83,0,3.62,1.61,3.62,3.61v6.68h-3.21Z"/>
    <path class="cls-1" d="m149.5,167.73c.98,0,1.28-.57,1.28-1.34,0-.73-.31-1.35-1.28-1.35h-.9c-.97,0-1.3.63-1.3,1.35,0,.77.31,1.34,1.3,1.34h.9Zm.08,8.14c1.4,0,2.24-.39,2.24-1.37,0-.87-.53-1.14-1.44-1.14h-2.43c-.96,0-1.22.77-1.22,1.24v.1c0,.8.79,1.18,2.06,1.18h.79Zm-1.24,2.26c-2.93,0-4.66-1-4.66-2.87v-.08c.04-.87.57-1.93,1.87-2.16-.69-.1-1.06-.71-1.06-1.28,0-.77.51-1.49,1.39-2.3-1.2-.43-1.63-1.69-1.63-2.87,0-2.34,1.45-3.67,4.56-3.67h.43c.81,0,1.63.16,2.26.41l3.48-.28v2.36h-1.55c.21.35.37.73.37,1.16,0,2.34-1.39,3.32-4.64,3.32h-.22c-.16,0-.61,0-.96-.04-.2.2-.51.63-.51.85,0,.27.2.41.69.41h2.55c2.16,0,4.15.88,4.15,3.26,0,2.52-2.03,3.77-5.47,3.77h-1.06Z"/>
    <path class="cls-1" d="m158.46,173.19v-7.65h-1.99v-2.48h1.99v-1.08c0-1.89,1.04-3.05,3.58-3.05.9,0,1.69.02,3.34.29l-.57,2.26c-1.02-.12-1.77-.18-2.32-.18-.59,0-.83.33-.83.86v.89h3.11v2.48h-3.11v7.65h-3.2Z"/>
    <path class="cls-1" d="m166.18,173.19v-10.12h2.36l.39.77c.75-.65,1.47-.94,2.44-.94.55,0,1.14.13,1.79.35l-.73,2.4c-.47-.16-.96-.22-1.3-.22-.88,0-1.39.29-1.75.51v7.25h-3.2Z"/>
    <path class="cls-1" d="m180.41,168.69c-.31,0-1.3,0-1.93.04-.88.08-1.2.41-1.2.98v.39c0,.49.25.73.8.73s1.89-.41,2.32-.57v-1.57Zm.71,4.5l-.24-.67c-1.3.57-2.32.85-3.48.85-2.18,0-3.3-1.2-3.3-2.87v-.35c0-2.2,1.49-3.36,4.11-3.36h2.2v-.49c-.04-.61-.23-.9-1.24-.9-1.08,0-3.15.23-3.93.37l-.65-2.44c1.83-.28,3.75-.43,5.05-.43,2.55,0,3.97.8,3.97,3.46v6.84h-2.49Z"/>
    <path class="cls-1" d="m192.43,173.19l-.37-.67c-.96.49-1.99.85-3.11.85-2.85,0-3.61-1.57-3.61-3.62v-6.68h3.2v6.51c0,.81.16,1.24.98,1.24.63,0,1.45-.25,2.08-.51v-7.23h3.2v10.12h-2.38Z"/>
  </g>
  <rect class="cls-1" x="196.89" y="165.33" width="7.13" height="2.56"/>
  <path class="cls-1" d="m211.04,162.23l-1.77,5.85h3.56l-1.79-5.85Zm3.2,10.97l-.83-2.56h-4.74l-.83,2.56h-3.56l4.95-14.07h3.6l4.93,14.07h-3.54Z"/>
  <g>
    <path class="cls-1" d="m223.97,172.88c-1.18.37-2.12.49-2.63.49-1.98,0-2.55-1.12-2.55-2.36v-11.53l3.21-.65v11.22c0,.45.15.73.71.73.22,0,.51-.06.85-.16l.43,2.26Z"/>
    <path class="cls-1" d="m231.43,166.39c0-.79-.43-1.12-1.41-1.12h-.33c-.98,0-1.41.33-1.41,1.12v.67h3.16v-.67Zm3.24,6.17c-.79.31-2.89.81-5.17.81-2.89,0-4.44-.96-4.44-3.75v-2.65c0-2.54,1.28-4.07,4.42-4.07h.75c3.09,0,4.4,1.53,4.4,4.07v1.99h-6.37v.75c0,.85.39,1.18,1.33,1.18,1.44,0,3.09-.25,4.31-.61l.77,2.3Z"/>
    <path class="cls-1" d="m244.91,172.74c-.96.31-2.36.63-3.79.63-2.32,0-3.28-1.12-3.28-3.03v-4.8h-1.99v-2.47h1.99v-2.99l3.2-.63v3.62h3.58v2.47h-3.58v4.33c0,.85.2,1.06.84,1.06.57,0,1.63-.18,2.3-.37l.73,2.18Z"/>
    <path class="cls-1" d="m255.74,170.21c0,1.61-1.26,3.16-4.52,3.16-2.3,0-3.81-.41-4.72-.69l.79-2.38c1.18.31,2.69.55,3.87.55.98,0,1.4-.2,1.4-.85,0-.51-.35-.71-.98-.71h-1.55c-1.79,0-3.54-.69-3.54-2.85v-.2c.02-2.48,1.85-3.36,3.87-3.36,1.85,0,3.79.22,5.09.43l-.79,2.38c-1.46-.22-2.73-.34-4.03-.34-.77,0-.98.37-.98.79,0,.47.21.71.85.71h1.45c1.77.02,3.79.47,3.79,2.97v.37Z"/>
    <path class="cls-1" d="m266.35,172.68c-1.24.39-3.16.69-4.6.69-3.46,0-4.34-1.42-4.34-3.81v-2.75c0-2.77,1.28-3.91,4.13-3.91,1.3,0,3.26.17,4.7.45l-.71,2.38c-.98-.16-2.55-.29-3.42-.29-1.35,0-1.49.47-1.49,1.57v2.52c0,.92.16,1.35,1.57,1.35.96,0,2.38-.16,3.48-.47l.69,2.28Z"/>
    <path class="cls-1" d="m274.54,173.19v-6.68c0-.71-.26-1.1-.98-1.1-.63,0-1.32.19-2.16.51v7.27h-3.21v-13.72l3.21-.65v4.69c.77-.31,1.77-.63,2.71-.63,2.28,0,3.63.96,3.63,3.65v6.64h-3.2Z"/>
  </g>
  <polygon class="cls-1" points="162.15 90.54 157.35 91.46 154.73 93.12 149.64 94.93 153.87 94.26 156.42 92.79 158.4 92.58 161.65 91.7 164.14 88.84 162.17 90.54 162.15 90.54"/>
  <path class="cls-1" d="m133.28,108.35h6.02v-6.02h4.73v6.02h6.16v4.73h-6.16v6.16h-4.73v-6.16h-6.02v-4.73Zm-3.06,2.43v11.51h23.03v-23.03h-23.03v11.51Z"/>
  <polygon class="cls-1" points="156.91 93.82 160.08 93.47 161.26 93.55 166.14 91.85 168.4 88.97 169.13 87.32 169.33 85.7 168.16 87.79 164.9 91.04 161.85 92.55 159.96 92.9 156.91 93.82"/>
  <polygon class="cls-1" points="113.35 94.59 108.97 96.46 103.94 97.5 102.6 98.58 101.92 99.94 99.32 99.94 95.21 104.66 99.32 101.34 101.49 101.54 102.18 100.86 103.99 100.05 104.33 98.94 105.97 97.96 109.84 97.39 111.43 96.25 114.52 95.46 117.13 95.68 121.55 94.18 116.4 94.92 113.35 94.59"/>
  <path class="cls-1" d="m194.48,98l5.27,3.28,9.49,8.17h-21.71l3.62-2.47,1.65-4.44,3.82,1.38-2.14-5.93Zm-65.48-37.87l-.17-.32.78.61.15.11-.76-.4Zm-26.81-1.35l3.19-.71h.16s.39,1.33.39,1.33l-2.01.14-1.73-.77Zm-96.18,1.15l-2.76-5.41,2.26-6.27,3.34-.29.39-.03.31-.23,6.63-5.03,7.91-.41,1.03-.05h.12s.87,6,.87,6l1.69,3.53-.55-5.05,1.17-2.41,2.05,10.11-2.56,4.05-9.14,3.02,12.69,1.36,10.14,5.29,3.89,6.44-4.43,4.74,6.63-4.13,2.69-5.25.44-4.07,3.67,7.05-.94,5.67,1.02,4.98.25-3.67,2.08-2.59,3.54,3.28,9.4,3.02,1.98,2.73-.41,1.77,2.8,4.12-7.15-4.57-4.31-1.13,2.59,2.98-7.65-1.67-1.24-.91,2.49-2.05-5.4.91-2.82,2.88,8.22,2.5,5.56.09-6.31,4.64-9.72,2.83-2.98,3.18-4.91-.56,5.54,6.51,2.92,1.63h-9.86l-7.3-8.35,1.13-6.67-4.02-4.24-.5-1.77-8.79-3.2.8-6.2-4.07-9.46-6.89-7.89-4.15,2.45.63-4.21Zm214.4-4.48l2.93-1.45.32-3.83,4.95-6.44,2.75-4.51,1.42-1.04.95-.7,6.02-1.24-1.49,4.28-3.03-1.15.45,3.06,4.24,3.81-.51,1.56-.82-1.66-1.76-1.34-.9,2.26-.27,2.69,1.95-1.45,2.01,6.11-.95,9.54,3.45-4.39.93-5.75-2.49-4.83,7.05,8.64,1.53,4.13,6.49,7.95.75,5.28-3.75-5.12-8.65-3.12-4.21-.31,4.56,2.21,4.27,4.99,2.84-.09,3.72,3.57,4.81,2.43-.13,2.5,3.4,2.31-2.4-5.54-.86-.9-1.27-4.07-1.74-3.7,4.67,1.67-1.83-3.62-.75-.74,4.17,1.28,3.67,3.04-1.37,1.48,5.88,1.99,1.86.32-4.66-4.59-2.41-2.27,2.53-1.24,4.35.95,4.76.13,4.25,1.42v23.7l-2.04,2.04-14.47-1.25-13.98-7.64,16.1,12.13,7.39,1.71-2.9,2.9-.75-.4-.33-.99-12.31-6.04,8.2,5.98,2.5,4.15-3.22,3.22h-13.91l-2.88-3.2-14.18-6.42.25,2.58-13.71-8.65,4.17-.76,13.93,3.73-3.71-2.7-7.58-7.8,11.43,3.54-14.29-8.53-10.98-6.19,4.34-1.76,2.93,1.98,6.93,1.03-14.95-6.13-12.91-1.93-6.73-2.08-1.84-2.54,2.48.18.48.03.39-.28,2.04-1.44,2.47.43.54.09.45-.31,1.96-1.38.15-.11.11-.14,5.59-6.91,1.92-.57.55-.16.26-.51,2.16-4.2,2.14-.26.33-.04.27-.19,1.8-1.25.11.44-1.53,4.26-3.52,1.7,4.5-1.41,2.26-3.43.38-3.07.67-.47,2.29-.14.39-.03.25-.18.91,1.42-3.33,3.36-6.91,12.47,5.25-6.07ZM40.91,37.94l1.88-2.04,17.77,11.61.27.17.31.03,10.19,1.16,3.79,2.9.45.35.57-.09,1.1-.18-1.41,1.31,5.39,1.39-4.3.78-.49,1,7.14,6.91-.76,3.47.78,3.49-4.29-3.34-1.11-2.05-.07,3.98,3.43,6.27-2.73,4.71.42,3.29,6.38,4.73-2.76,2.4-4.67.09,1.4-2.62-6.45-3.47-3.2-3.22-6.71-3.25-.51-3.73,5.55,1.53-.54-4.6,4.47-1.34-4.13-2.13-.71-1.95.98-2.07,4.76,3.47,2.98,4.98-3.09-8.79-3.74-3.18.3-5.42-2.69-4.59-10.51-2.96-7.34-4.4-3.16-1.24,3.69,2.6,4.74,7.8-4.07.96,2.15.84,1.68,1.94-8.68.44-1.73-1-2.85-6.75.21-5.87-3.18-4.24-.45-.13,2.39.41.72.12.49-.53ZM1.33,17.14L17.15,1.33h249.17l15.81,15.81v46.99l-2.94-2.05-.57.09-.51.08-6.04-6.89-7.28-1.38-3.2.86-4.97-3.96-1.24-4.48-1.77.17-3.02-3.44-1.07.17-7.99-8.78-.45.09-7.91,1.63-1.18.87-7.06,5.17-.73.54-.43.31-2.66.17-.07.05-1.71,1.19-3.19,2.21-2.85.35-2.48,4.83-2.31.69-5.85,7.23-1.95,1.38-3.02-.52-2.49,1.76-3.59-.27-3.03,1.09-2.93,1.72-4.07.81-.81-.14-2.62.03-.35.47-1.54-.14-1.06.29-1.47-.17-1.94-1.33-1.61.63-.79-.4-1.07-1.19-.73.16-.58.5-.55-.08-.53-.77-.8-.15-1.88.51-1.4,1.1-.39.31-2.24.35-.7-.44-1.41.44-.72-.15-.19-.41-.7-.07-.6-.21-1.07-.93-.4.04-1-.77-.87.23-.34-.68-.6.23-.55-.62-.89.41-.5.6-.54.04-2.14-.97-1.99-3.04-1.53.74-2.1-.41-1.81,1.03-.53-.55-1.88.48-3.4-.89-2.3-.52-2.23-1.74-2.94-.83-4.29,2.91-1.37-.88-1.85.61-5.05-.07-.74-1.25-1.63.22-2.15-1.53-2.91-.09-3.69.82-1.69-.6-1.02.05-1.39-.47-.87,1-4.75-1.72h0s-3.45-1.25-3.45-1.25l-2.64-.25-3.83-4.56-4.66.75-1.34.21-4.08-3.12-10.55-1.21-18.72-12.23-2.65,2.87-6.95-1.2-1.13.72-6.79,4.32-1.04.05-8.32.43-6.96,5.28-4.54.39-.98.08-1.88,1.19v-31.16ZM16.59,0L0,16.59v77.6l16.59,16.59h59.51s0,0,0,0h8.84,0s2.59,0,2.59,0h0s1.1,0,1.1,0h3.81,0s6.51,0,6.51,0h0s3.03,0,3.03,0h0s6.01,0,6.01,0h0s10.59,0,10.59,0h0s10.31,0,10.31,0v-4.97l-1.33.78-6.11,2.85h-14.57s.54-2.4.54-2.4l.05-.02,3.39-1.38,3.16-2.87-4.12,2.64-3.16.61-1.65,1.98-2.37,1.43h-3.52l.55-2.97.87-.66,2.19-.24,1.37-1.78,4.23.29,6.21-3.5,3.69-.71,2.28-1.26,3.2-.25,1.6-.91,2.02-1.56,1.36-.41,4.61-.44,3.91-1.96,7.92-2,6.25-.61,6.18-2.14,4.65-1.03,5.66-2.45,3.06-2.58,1.26-2.75,1.38-1.33,1.6-2.01-.3-1-1.37-1.2-2.31-1.1-1.55-1.3-1.87-.85-1.93-.09,2.39.76,1.57,1.16.78.93,1.32.58,1.1.91.22,1.12-1.43,1.96-.86,1.11-1.19,2.61-3.11,2.35-5.69,2.68-6.05,1.15-5.2,1.84-7.74,1.09-6.28,1.51-3.14,1.5-6.89,1.28-1.51,1.28h-.02s-4.19.65-4.19.65l-2.95,1.67-3.72.78-4.97,3.57h-.02s-2.37-.64-2.37-.64l1.67-.85v-1.62l.05-.02,3.63-1.67-4.3,1.39-.75,1.68-4.9,2.29-2.24.19-2.27,3.3-2.74,2.26h-4.11l.07-.56,1.57-.78.03-.93,3.25-4.39-5.98,4.22-.88,2.45h-3.43l.67-2.33,2.39-2.92,5.49-2.56,2.17-2.36,2.39-.67,2.86-1.62,2.87-.29,4.42-2.31,2.09-.1,2.11-1.27,5.98.14,6.63-1.25,1.34-1.18,7.75-.38.5-.03,14.6-2.53,10.45-3.08,6.26-3.54,1.88-2.78,2.45-1.98.46-1.32-1.56-1.71-2.43-1.22-1.86-1.36-2.01-.67,1.26.79.72.49.54.86,2.49,1.25,1.36,1.11.17.66-.94.85-.71.98-1.05.89-1.04,1.45-1.32,1.65-3.57,1.61-6.52,2.91-8.73,2.09-7.47.87-4.67,1.11-6.83.15-6.75,2.23-2.49-.36-5.52.35-2.69,1.33-4,.91-3.71,1.49-2.23.03-2.94,1.92-3.77,1.03-5.47,1.91-1.75,1.39-.67,2.05-3.8,1.72-1.45,2.46-1.31,1.14h-11.47l14.65-14.5,13.58-6.14,4.93-2.85-5.56-1.79-4.06-6.72,5.69-3.27,2-3.49-3.58,2.42-2.71-.15-1.69-6.29,3.09-8.51-1.35-1.2.25.09,1.79.65h0s2.97,1.06,2.97,1.06l.86.31.6-.69.28-.32.54.19.24.08h.25s.75-.05.75-.05l1.3.46-2.05.35.21,3.73,2.83,4.38-1.2.22-1.46,1.5,1.35-.72,3.06.21.52,2.81,3.35,4.39-1.58,2.37-4.3.55,4.75,1.23h3.06l-.58,1.06,1.98-.6,2.68.84,3.9-1.11,4.34-4.14,2.13-4.95,4.43-3.47-.71-.15.76-1.02-3.79-1.35-2.52-2.79h5.45l2.13-.38,2.04.73-.79-1.28-1.07-.57.22.05,2.27.52,2.94.77-1.71,2.8-.14,1.9-2.87,3.38,1.04,2.35,1.95,1.68.03,1.63-2.97-.41-1.21,1.25-1.64,3.06,2.3-2.52,2.64.27,3.85-.37-1.01-.88-.42-1.47-1.38-1.8.22-1.92,3.57-2.74,1.57.89,2.09,3.15,1.71,1.22-.55.47-.82,1.74,2.88-.46-.45.65-.96.41,1.94-.16,2.91-.63.64.42,5.11.51,5.83-.83,3.04-1.27-1.18-.05-1.19-.46.81-.62.61.29h3.22l-2.13-.47-1.71-.83.8-.79-.89-.78.47-.45-1.7-.21-1.29-1.37-1.47-.98.72.95.64,1.21-1.86-.48-.74-1.5-.84-1.21.25,1-.2,1.03-1.27-1.37.11,2.19.52.72-2.37-.35-6.03-2.85.27-.71-.84-1.07.51-1.24,1.83.83.32.15h.15s.45.28.45.28l3.88,1.07,1.96-.05.11.04.6.22.16.06h.1s.14.33.14.33l.67.14.72.15.34.07.33-.1.82-.26.19.11.42.27.49-.08,1.02-.16-.73.69,3.2,1.4,3.02-.21,3.41.57,1.16,1.57,5.49,2.87,2.46.15.92.91,1,.31,1.98,1.46,4.19.54-.92.87-.38,2.65,1.14.95-2.98,1.86-.21.71.89,2.31-.92,1.42-3.9,1.11-7.99,3.72-1.6,2.47-2.28,1.06-.97,3.63-3.46,2.25-4.08-2.19-2.6-.08-1.76-2.89-1.61.89h1.69v12.85h31.01s25.21,0,25.21,0h0s42.82,0,42.82,0h0s5.43,0,5.43,0h7.82l3.38-3.38h0s3.21-3.21,3.21-3.21h0s3.2-3.21,3.2-3.21h0l5.16-5.16h0s1.64-1.64,1.64-1.64V16.59L266.87,0H16.59Z"/>
  <polygon class="cls-1" points="234.44 67.84 233.9 64.43 229.9 62.21 225.4 61.27 223.88 58.04 222.21 63.09 219.06 65.37 232.37 69.57 229.69 67.84 227.18 65.59 231.79 65.48 234.44 67.84"/>
</svg>